<?xml version="1.0" encoding="UTF-8"?>
<svg width="30px" height="30px" viewBox="0 0 30 30" version="1.1" xmlns="http://www.w3.org/2000/svg" xmlns:xlink="http://www.w3.org/1999/xlink">
    <!-- Generator: Sketch 59.1 (86144) - https://sketch.com -->
    <title>icon-product-white</title>
    <desc>Created with Sketch.</desc>
    <g id="页面-1" stroke="none" stroke-width="1" fill="none" fill-rule="evenodd">
        <g id="首页-默认" transform="translate(-407.000000, -2835.000000)">
            <g id="位图" transform="translate(144.000000, 2561.000000)">
                <g id="icon-product-white" transform="translate(263.000000, 274.000000)">
                    <rect id="Rectangle-3" fill="#FFFFFF" x="1" y="28" width="28" height="2" rx="1"></rect>
                    <rect id="Rectangle-4" fill="#FFFFFF" x="21" y="23" width="2" height="5"></rect>
                    <rect id="Rectangle-4" fill="#FFFFFF" x="9" y="23" width="2" height="5"></rect>
                    <rect id="Rectangle-3" fill="#4775DC" x="4" y="4" width="24" height="12"></rect>
                    <path d="M28,0 C29.1045695,-2.02906125e-16 30,0.8954305 30,2 L30,23 C30,24.1045695 29.1045695,25 28,25 L2,25 C0.8954305,25 1.3527075e-16,24.1045695 0,23 L0,2 C-1.3527075e-16,0.8954305 0.8954305,2.02906125e-16 2,0 L28,0 Z M28,18 L2,18 L2,23 L28,23 L28,18 Z M28,2 L2,2 L2,16 L28,16 L28,2 Z" id="Combined-Shape" fill="#FFFFFF"></path>
                    <rect id="Rectangle-5" fill="#FFFFFF" x="12" y="20" width="6" height="2" rx="1"></rect>
                </g>
            </g>
        </g>
    </g>
</svg>