<?xml version="1.0" encoding="UTF-8"?>
<svg width="104px" height="104px" viewBox="0 0 104 104" version="1.1" xmlns="http://www.w3.org/2000/svg" xmlns:xlink="http://www.w3.org/1999/xlink">
    <!-- Generator: Sketch 59.1 (86144) - https://sketch.com -->
    <title>icon-storage-home</title>
    <desc>Created with Sketch.</desc>
    <g id="页面-1" stroke="none" stroke-width="1" fill="none" fill-rule="evenodd">
        <g id="首页-默认" transform="translate(-668.000000, -869.000000)">
            <g id="icon-storage-home-2" transform="translate(668.000000, 869.000000)">
                <g id="icon-storage-home" transform="translate(4.000000, 0.000000)">
                    <polygon id="多边形" fill="#D2E0FF" opacity="0.402739025" points="54 10 94 32 94 76 54 98 14 76 14 32"></polygon>
                    <path d="M21.119494,40.2000422 C21.3812963,39.7137521 21.987745,39.5317689 22.474035,39.7935712 L22.474035,39.7935712 L46.4785172,52.716782 C46.8025183,52.8912133 47.0045464,53.2294909 47.0044822,53.5974623 L47.0044822,53.5974623 L46.9996496,81.3260946 C46.9996208,81.4915283 46.9585494,81.6543705 46.8801158,81.8000292 C46.6182727,82.2862973 46.0118088,82.4682297 45.5255407,82.2063865 L45.5255407,82.2063865 L21.5258911,69.2831791 C21.2019863,69.1087645 21,68.7705917 21,68.4027129 L21,68.4027129 L21,40.6740772 C21,40.5086129 21.0410582,40.3457344 21.119494,40.2000422 Z M75,39.6743572 C75.5522847,39.6743572 76,40.1220725 76,40.6743572 L76,40.6743572 L76,68.4027559 C76,68.7706119 75.7980384,69.1087677 75.4741647,69.2831921 L75.4741647,69.2831921 L51.478751,82.206079 C51.3330265,82.2845599 51.1701004,82.3256428 51.0045864,82.3256428 C50.4523016,82.3256428 50.0045864,81.8779275 50.0045864,81.3256428 L50.0045864,81.3256428 L50.0045864,53.5972441 C50.0045864,53.2293881 50.2065479,52.8912323 50.5304217,52.7168079 L50.5304217,52.7168079 L74.5258353,39.793921 C74.6715599,39.7154401 74.8344859,39.6743572 75,39.6743572 Z M47.5259002,22.2552845 C47.8218765,22.0959127 48.1781235,22.0959127 48.4740998,22.2552845 L48.4740998,22.2552845 L72.3648394,35.1195289 C72.5371403,35.2123063 72.6784332,35.3535992 72.7712107,35.5259002 C73.0330488,36.0121709 72.8511101,36.618633 72.3648394,36.8804711 L72.3648394,36.8804711 L48.4740998,49.7447155 C48.1781235,49.9040873 47.8218765,49.9040873 47.5259002,49.7447155 L47.5259002,49.7447155 L23.6351606,36.8804711 C23.4628597,36.7876937 23.3215668,36.6464008 23.2287893,36.4740998 C22.9669512,35.9878291 23.1488899,35.381367 23.6351606,35.1195289 L23.6351606,35.1195289 Z" id="形状结合" fill="#779FF9"></path>
                    <path d="M31.4664658,92.7798941 C31.4673878,92.7803843 31.4683089,92.7808759 31.4692293,92.781369 L32.2476722,93.1980147 L32.2496722,93.1940147 L33.1636722,93.6890147 L33.2179977,93.7182662 L48.0006421,101.725443 L63.6656722,93.2390147 L64.6109666,95 L64.6156722,94.9990147 L48.0006421,104 L32.2790451,95.4841792 L30.530283,94.5472702 C30.043015,94.2862137 29.8587689,93.6801605 30.1182897,93.1920729 C30.3767582,92.7059643 30.9803572,92.5214256 31.4664658,92.7798941 Z M95,57.9270117 C95.5522847,57.9270117 96,58.3747269 96,58.9270117 L96,77.9270117 L81.2871992,85.8979806 C81.2699021,85.9087166 81.2521731,85.9189959 81.2340196,85.9287944 L79.4706815,86.8805604 C78.9877007,87.1412505 78.3848363,86.9610482 78.1241462,86.4780674 C78.1231629,86.4762457 78.1221853,86.4744209 78.1212134,86.4725931 L78.118288,86.4670911 C77.8601513,85.9816065 78.0423926,85.3787901 78.526254,85.1176237 L80,84.323 L80,84.319 L93.9999732,76.7357877 L93.9999732,58.9270117 C93.9999732,58.4141759 94.3860134,57.9915045 94.8833521,57.9337394 L95,57.9270117 Z M1,57.9270117 L1.11664788,57.9337394 C1.61398657,57.9915045 2.00002676,58.4141759 2.00002676,58.9270117 L2.00002676,58.9270117 L2.00002676,76.7357877 L16,84.319 L16,84.323 L17.473746,85.1176237 C17.9576074,85.3787901 18.1398487,85.9816065 17.881712,86.4670911 L17.881712,86.4670911 C17.8778147,86.4744209 17.8768371,86.4762457 17.8758538,86.4780674 C17.6151637,86.9610482 17.0122993,87.1412505 16.5293185,86.8805604 L16.5293185,86.8805604 L14.7659804,85.9287944 C14.7478269,85.9189959 14.7300979,85.9087166 14.7128008,85.8979806 L14.7128008,85.8979806 L1.77635684e-14,77.9270117 L1.77635684e-14,58.9270117 C1.78312038e-14,58.3747269 0.44771525,57.9270117 1,57.9270117 L1,57.9270117 Z M17.8758538,17.4489443 C17.8768371,17.450766 17.8778147,17.4525908 17.8787866,17.4544186 L17.881712,17.4599206 C18.1398487,17.9454052 17.9576074,18.5482216 17.473746,18.809388 L16,19.6040117 L16,19.6080117 L2.00002676,27.191224 L2.00002676,45 C2.00002676,45.5128358 1.61398657,45.9355072 1.11664788,45.9932723 L1,46 C0.44771525,46 1.78312038e-14,45.5522847 1.77635684e-14,45 L1.77635684e-14,26 L14.7128008,18.0290311 C14.7300979,18.0182951 14.7478269,18.0080158 14.7659804,17.9982173 L16.5293185,17.0464513 C17.0122993,16.7857612 17.6151637,16.9659635 17.8758538,17.4489443 Z M78.1241462,17.4489443 C78.3848363,16.9659635 78.9877007,16.7857612 79.4706815,17.0464513 L79.4706815,17.0464513 L81.2340196,17.9982173 C81.2521731,18.0080158 81.2699021,18.0182951 81.2871992,18.0290311 L81.2871992,18.0290311 L96,26 L96,45 C96,45.5522847 95.5522847,46 95,46 L95,46 L94.8833521,45.9932723 C94.3860134,45.9355072 93.9999732,45.5128358 93.9999732,45 L93.9999732,45 L93.9999732,27.191224 L80,19.6080117 L80,19.6040117 L78.526254,18.809388 C78.0423926,18.5482216 77.8601513,17.9454052 78.118288,17.4599206 L78.118288,17.4599206 C78.1221853,17.4525908 78.1231629,17.450766 78.1241462,17.4489443 Z M48.0006421,3.55271368e-14 L64.6237309,9.005 L64.6227309,9.007 L65.4837595,9.47330064 C65.932268,9.71620238 66.1208837,10.252806 65.9390685,10.7165417 L65.8904852,10.8220973 L65.8851094,10.8321921 C65.6410731,11.2828078 65.1043391,11.4694201 64.6430465,11.2848055 L64.5381012,11.2355635 L62.7824717,10.2847511 L62.7827309,10.281 L48.0006421,2.27455734 L33.2247309,10.277 L33.2259267,10.2803284 L31.4723708,11.2271851 C30.9895111,11.4879118 30.3867153,11.3078375 30.1259886,10.8249779 C30.1249794,10.8231089 30.1239762,10.8212367 30.122979,10.8193613 L30.1199746,10.8137107 C29.8618687,10.3282842 30.0440328,9.72553987 30.5277926,9.46432333 L31.3867309,9 L31.3847309,9 L48.0006421,3.55271368e-14 Z M62.7993631,93.704071 L64.5300006,92.7770604 C65.0153525,92.5170832 65.6195612,92.6997854 65.8795384,93.1851373 C65.8800193,93.186035 65.8804988,93.1869335 65.8809769,93.1878327 L65.8829866,93.1916125 C66.1414824,93.6777724 65.9583406,94.2814304 65.4732941,94.5420095 L63.6981066,95.4956844 L63.6981066,95.4956844 L62.7993631,93.704071 Z" id="形状结合" fill="#4881FF" fill-rule="nonzero"></path>
                </g>
            </g>
        </g>
    </g>
</svg>