<?xml version="1.0" encoding="UTF-8"?>
<svg width="30px" height="30px" viewBox="0 0 30 30" version="1.1" xmlns="http://www.w3.org/2000/svg" xmlns:xlink="http://www.w3.org/1999/xlink">
    <!-- Generator: Sketch 59.1 (86144) - https://sketch.com -->
    <title>icon-storage-white</title>
    <desc>Created with Sketch.</desc>
    <g id="页面-1" stroke="none" stroke-width="1" fill="none" fill-rule="evenodd">
        <g id="首页-默认" transform="translate(-518.000000, -2834.000000)">
            <g id="位图" transform="translate(144.000000, 2561.000000)">
                <g id="icon-storage-white" transform="translate(374.000000, 273.000000)">
                    <path d="M28,0 C29.1045695,-2.02906125e-16 30,0.8954305 30,2 L30,16 C30,17.1045695 29.1045695,18 28,18 L18,18 C16.8954305,18 16,17.1045695 16,16 L16,2 C16,0.8954305 16.8954305,2.02906125e-16 18,0 L28,0 Z M28,2 L18,2 L18,16 L28,16 L28,2 Z" id="Combined-Shape" fill="#FFFFFF"></path>
                    <path d="M12,12 C13.1045695,12 14,12.8954305 14,14 L14,28 C14,29.1045695 13.1045695,30 12,30 L2,30 C0.8954305,30 1.3527075e-16,29.1045695 0,28 L0,14 C-1.3527075e-16,12.8954305 0.8954305,12 2,12 L12,12 Z M12,14 L2,14 L2,28 L12,28 L12,14 Z" id="Combined-Shape" fill="#FFFFFF"></path>
                    <path d="M28,20 C29.1045695,20 30,20.8954305 30,22 L30,28 C30,29.1045695 29.1045695,30 28,30 L18,30 C16.8954305,30 16,29.1045695 16,28 L16,22 C16,20.8954305 16.8954305,20 18,20 L28,20 Z M28,22 L18,22 L18,28 L28,28 L28,22 Z" id="Combined-Shape" fill="#FFFFFF"></path>
                    <path d="M12,0 C13.1045695,-2.02906125e-16 14,0.8954305 14,2 L14,8 C14,9.1045695 13.1045695,10 12,10 L2,10 C0.8954305,10 1.3527075e-16,9.1045695 0,8 L0,2 C-1.3527075e-16,0.8954305 0.8954305,2.02906125e-16 2,0 L12,0 Z M12,2 L2,2 L2,8 L12,8 L12,2 Z" id="Combined-Shape" fill="#FFFFFF"></path>
                    <rect id="Rectangle-6" fill="#4775DC" x="20" y="4" width="8" height="12"></rect>
                    <rect id="Rectangle-6" fill="#4775DC" x="2" y="16" width="8" height="12"></rect>
                </g>
            </g>
        </g>
    </g>
</svg>