<?xml version="1.0" encoding="UTF-8"?>
<svg width="104px" height="104px" viewBox="0 0 104 104" version="1.1" xmlns="http://www.w3.org/2000/svg" xmlns:xlink="http://www.w3.org/1999/xlink">
    <!-- Generator: Sketch 59.1 (86144) - https://sketch.com -->
    <title>icon-database-home</title>
    <desc>Created with Sketch.</desc>
    <g id="页面-1" stroke="none" stroke-width="1" fill="none" fill-rule="evenodd">
        <g id="首页-默认" transform="translate(-1058.000000, -869.000000)">
            <g id="icon-database-home-2" transform="translate(1058.000000, 869.000000)">
                <g id="icon-database-home" transform="translate(4.000000, 0.000000)">
                    <polygon id="多边形" fill="#D2E0FF" opacity="0.402739025" points="54 10 94 32 94 76 54 98 14 76 14 32"></polygon>
                    <path d="M31.4664658,92.7798941 C31.4673878,92.7803843 31.4683089,92.7808759 31.4692293,92.781369 L32.2476722,93.1980147 L32.2496722,93.1940147 L33.1636722,93.6890147 L33.2179977,93.7182662 L48.0006421,101.725443 L63.6656722,93.2390147 L64.6109666,95 L64.6156722,94.9990147 L48.0006421,104 L32.2790451,95.4841792 L30.530283,94.5472702 C30.043015,94.2862137 29.8587689,93.6801605 30.1182897,93.1920729 C30.3767582,92.7059643 30.9803572,92.5214256 31.4664658,92.7798941 Z M95,57.9270117 C95.5522847,57.9270117 96,58.3747269 96,58.9270117 L96,77.9270117 L81.2871992,85.8979806 C81.2699021,85.9087166 81.2521731,85.9189959 81.2340196,85.9287944 L79.4706815,86.8805604 C78.9877007,87.1412505 78.3848363,86.9610482 78.1241462,86.4780674 C78.1231629,86.4762457 78.1221853,86.4744209 78.1212134,86.4725931 L78.118288,86.4670911 C77.8601513,85.9816065 78.0423926,85.3787901 78.526254,85.1176237 L80,84.323 L80,84.319 L93.9999732,76.7357877 L93.9999732,58.9270117 C93.9999732,58.4141759 94.3860134,57.9915045 94.8833521,57.9337394 L95,57.9270117 Z M1,57.9270117 L1.11664788,57.9337394 C1.61398657,57.9915045 2.00002676,58.4141759 2.00002676,58.9270117 L2.00002676,58.9270117 L2.00002676,76.7357877 L16,84.319 L16,84.323 L17.473746,85.1176237 C17.9576074,85.3787901 18.1398487,85.9816065 17.881712,86.4670911 L17.881712,86.4670911 C17.8778147,86.4744209 17.8768371,86.4762457 17.8758538,86.4780674 C17.6151637,86.9610482 17.0122993,87.1412505 16.5293185,86.8805604 L16.5293185,86.8805604 L14.7659804,85.9287944 C14.7478269,85.9189959 14.7300979,85.9087166 14.7128008,85.8979806 L14.7128008,85.8979806 L1.77635684e-14,77.9270117 L1.77635684e-14,58.9270117 C1.78312038e-14,58.3747269 0.44771525,57.9270117 1,57.9270117 L1,57.9270117 Z M17.8758538,17.4489443 C17.8768371,17.450766 17.8778147,17.4525908 17.8787866,17.4544186 L17.881712,17.4599206 C18.1398487,17.9454052 17.9576074,18.5482216 17.473746,18.809388 L16,19.6040117 L16,19.6080117 L2.00002676,27.191224 L2.00002676,45 C2.00002676,45.5128358 1.61398657,45.9355072 1.11664788,45.9932723 L1,46 C0.44771525,46 1.78312038e-14,45.5522847 1.77635684e-14,45 L1.77635684e-14,26 L14.7128008,18.0290311 C14.7300979,18.0182951 14.7478269,18.0080158 14.7659804,17.9982173 L16.5293185,17.0464513 C17.0122993,16.7857612 17.6151637,16.9659635 17.8758538,17.4489443 Z M78.1241462,17.4489443 C78.3848363,16.9659635 78.9877007,16.7857612 79.4706815,17.0464513 L79.4706815,17.0464513 L81.2340196,17.9982173 C81.2521731,18.0080158 81.2699021,18.0182951 81.2871992,18.0290311 L81.2871992,18.0290311 L96,26 L96,45 C96,45.5522847 95.5522847,46 95,46 L95,46 L94.8833521,45.9932723 C94.3860134,45.9355072 93.9999732,45.5128358 93.9999732,45 L93.9999732,45 L93.9999732,27.191224 L80,19.6080117 L80,19.6040117 L78.526254,18.809388 C78.0423926,18.5482216 77.8601513,17.9454052 78.118288,17.4599206 L78.118288,17.4599206 C78.1221853,17.4525908 78.1231629,17.450766 78.1241462,17.4489443 Z M48.0006421,3.55271368e-14 L64.6237309,9.005 L64.6227309,9.007 L65.4837595,9.47330064 C65.932268,9.71620238 66.1208837,10.252806 65.9390685,10.7165417 L65.8904852,10.8220973 L65.8851094,10.8321921 C65.6410731,11.2828078 65.1043391,11.4694201 64.6430465,11.2848055 L64.5381012,11.2355635 L62.7824717,10.2847511 L62.7827309,10.281 L48.0006421,2.27455734 L33.2247309,10.277 L33.2259267,10.2803284 L31.4723708,11.2271851 C30.9895111,11.4879118 30.3867153,11.3078375 30.1259886,10.8249779 C30.1249794,10.8231089 30.1239762,10.8212367 30.122979,10.8193613 L30.1199746,10.8137107 C29.8618687,10.3282842 30.0440328,9.72553987 30.5277926,9.46432333 L31.3867309,9 L31.3847309,9 L48.0006421,3.55271368e-14 Z M62.7993631,93.704071 L64.5300006,92.7770604 C65.0153525,92.5170832 65.6195612,92.6997854 65.8795384,93.1851373 C65.8800193,93.186035 65.8804988,93.1869335 65.8809769,93.1878327 L65.8829866,93.1916125 C66.1414824,93.6777724 65.9583406,94.2814304 65.4732941,94.5420095 L63.6981066,95.4956844 L63.6981066,95.4956844 L62.7993631,93.704071 Z" id="形状结合" fill="#4881FF" fill-rule="nonzero"></path>
                    <path d="M39.4724409,28.969909 C42.6999125,28.3275017 46.2090989,28 50,28 C53.7909011,28 57.3000875,28.3275017 60.5275591,28.969909 C63.7550306,29.6123163 66.3088364,30.4940518 68.1828521,31.6025192 C70.0568679,32.7109867 71,33.9076277 71,35.2050385 L71,38.8075577 C71,40.1049685 70.0629921,41.3016095 68.1828521,42.410077 C66.3027122,43.5185444 63.7550306,44.3939818 60.5275591,45.0426872 C57.3000875,45.6787964 53.7909011,46 50,46 C46.2090989,46 42.6999125,45.6724983 39.4724409,45.030091 C36.2449694,44.3876837 33.6911636,43.5059482 31.8171479,42.3974808 C29.9370079,41.2890133 29,40.0923723 29,38.7949615 L29,35.1924423 C29,33.8950315 29.9370079,32.6983905 31.8171479,31.589923 C33.6972878,30.4940518 36.2449694,29.6186144 39.4724409,28.969909 Z M37.8936853,47.5817131 C41.6483885,48.3888597 45.6848476,48.792433 50.0030626,48.792433 C54.3212775,48.792433 58.3577366,48.3888597 62.1124398,47.5817131 C65.8671431,46.7745665 68.8317048,45.5827641 71,44.0063058 L71,48.792433 C71,50.0914346 70.0628555,51.2895428 68.1824413,52.3993694 C66.3020271,53.509196 63.753974,54.3857068 60.5260318,55.0352076 C57.3042147,55.6784025 53.7945166,56 50.0030626,56 C46.2116086,56 42.7019105,55.6720967 39.4739682,55.0289017 C36.246026,54.3857068 33.6918477,53.5028902 31.8175587,52.3930636 C29.9371445,51.283237 29,50.0851287 29,48.7861272 L29,44 C31.1744203,45.5890699 34.1389821,46.7808723 37.8936853,47.5817131 L37.8936853,47.5817131 Z M37.8936853,57.5754073 C41.6483885,58.3825539 45.6848476,58.7861272 50.0030626,58.7861272 C54.3212775,58.7861272 58.3577366,58.3825539 62.1124398,57.5754073 C65.8671431,56.7682606 68.8317048,55.5764582 71,54 L71,58.7861272 C71,60.0851287 70.0628555,61.283237 68.1824413,62.3930636 C66.3020271,63.5028902 63.753974,64.3794009 60.5260318,65.0289017 C57.2980895,65.6784025 53.7945166,66 50.0030626,66 C46.2116086,66 42.7019105,65.6720967 39.4739682,65.0289017 C36.246026,64.3857068 33.6979729,63.5028902 31.8175587,62.3930636 C29.9371445,61.283237 29,60.0851287 29,58.7861272 L29,54 C31.1744203,55.5764582 34.1389821,56.7682606 37.8936853,57.5754073 Z M37.8936853,67.5817131 C41.6483885,68.3888597 45.6848476,68.792433 50.0030626,68.792433 C54.3212775,68.792433 58.3577366,68.3888597 62.1124398,67.5817131 C65.8671431,66.7745665 68.8317048,65.5827641 71,64.0063058 L71,68.792433 C71,70.0914346 70.0628555,71.2895428 68.1824413,72.3993694 C66.3020271,73.509196 63.753974,74.3857068 60.5260318,75.0352076 C57.2980895,75.6847084 53.7945166,76 50.0030626,76 C46.2116086,76 42.7019105,75.6720967 39.4739682,75.0289017 C36.246026,74.3857068 33.6918477,73.5028902 31.8175587,72.3930636 C29.9371445,71.283237 29,70.0851287 29,68.7861272 L29,64 C31.1744203,65.5827641 34.1389821,66.7745665 37.8936853,67.5817131 Z" id="形状" fill="#779FF9" fill-rule="nonzero"></path>
                </g>
            </g>
        </g>
    </g>
</svg>