<?xml version="1.0" encoding="UTF-8"?>
<svg width="110px" height="28px" viewBox="0 0 110 28" version="1.1" xmlns="http://www.w3.org/2000/svg" xmlns:xlink="http://www.w3.org/1999/xlink">
    <!-- Generator: Sketch 59.1 (86144) - https://sketch.com -->
    <title>logo</title>
    <desc>Created with Sketch.</desc>
    <defs>
        <rect id="path-1" x="0" y="0" width="1440" height="600"></rect>
    </defs>
    <g id="页面-1" stroke="none" stroke-width="1" fill="none" fill-rule="evenodd">
        <g id="首页-默认" transform="translate(-144.000000, -22.000000)">
            <rect fill="#F5F7F9" x="0" y="0" width="1440" height="3309"></rect>
            <rect id="矩形" fill="#191C23" opacity="0" x="120" y="0" width="1200" height="3309"></rect>
            <g id="homepage-nav-background">
                <mask id="mask-2" fill="white">
                    <use xlink:href="#path-1"></use>
                </mask>
                <use id="蒙版" fill="#2B303B" xlink:href="#path-1"></use>
                <g id="background" mask="url(#mask-2)">
                    <g transform="translate(0.000000, -52.000000)" id="Group">
                        <g>
                            <rect id="Rectangle-path" fill="#191C23" fill-rule="nonzero" x="0" y="52" width="1440" height="600"></rect>
                            <path d="M102.606343,12.8985025 L31.2946812,54.0494178 C11.7423659,65.3322063 14.1943428,85.0404822 36.7713917,98.0689452 L196.68744,188.120741 C219.264489,201.149204 253.417384,202.564344 272.969699,191.281556 L582.094829,12.8985025 L102.606343,12.8985025 Z" id="Shape" fill="#FFFFFF" fill-rule="nonzero" opacity="0.03"></path>
                            <path d="M654.734143,42.5458282 L602.112955,12.8985025 L319.240745,12.8985025 L0.899437851,196.695166 L0.899437851,316.049471 L92.0588637,367.410365 C114.017991,380.088844 147.23614,381.465969 166.253319,370.485659 L660.060347,85.3822451 C679.078138,74.4031583 676.69327,55.2243069 654.734143,42.5458282 Z" id="Shape" fill="#FFFFFF" fill-rule="nonzero" opacity="0.03"></path>
                        </g>
                    </g>
                </g>
            </g>
            <rect id="矩形" x="0" y="0" width="1440" height="72"></rect>
            <g id="logo小" transform="translate(144.000000, 22.000000)" fill="#FFFFFF" fill-rule="nonzero">
                <path d="M24.2087227,21.1166667 C24.6458184,21.1166667 24.8307434,21.3154832 24.8100525,21.7589971 L24.8006231,21.875 L23.8535826,27.3 C23.7352025,27.7083333 23.4984424,28 23.0249221,28 C22.5908619,28 22.405482,27.8039352 22.4231911,27.4118056 L22.4330218,27.3 L22.788162,25.2 L20.3613707,25.2 L20.0062305,27.3 C19.8878505,27.7083333 19.6510903,28 19.1775701,28 C18.7435099,28 18.55813,27.8039352 18.575839,27.4118056 L18.5856698,27.3 L19.5327103,21.875 C19.6510903,21.4083333 19.8878505,21.1166667 20.3613707,21.1166667 C20.7954309,21.1701389 20.9808108,21.3706597 20.9631018,21.7631607 L20.953271,21.875 L20.5981308,23.9166667 L23.0249221,23.9166667 L23.3800623,21.875 C23.4984424,21.4083333 23.7352025,21.1166667 24.2087227,21.1166667 Z M18.1713396,21.1166667 C18.5856698,21.175 18.7632399,21.4083333 18.8224299,21.8166667 C18.7780374,21.9041667 18.7336449,22.0244792 18.6642815,22.1283854 L18.5856698,22.225 L16.3956386,24.7333333 L15.9813084,27.2416667 C15.8629283,27.65 15.5669782,27.8833333 15.152648,27.8833333 C14.7185877,27.8833333 14.5332079,27.6872685 14.5509169,27.3400704 L14.5607477,27.2416667 L14.9750779,24.7333333 L13.6137072,22.225 C13.5545171,22.1083333 13.5545171,21.9916667 13.5545171,21.8166667 C13.6728972,21.35 13.9096573,21.175 14.3239875,21.1166667 C14.5212876,21.1166667 14.6774836,21.1976852 14.7925753,21.3259645 L14.8566978,21.4083333 L15.8629283,23.3916667 L17.5202492,21.4083333 C17.6978193,21.2333333 17.9345794,21.1166667 18.1713396,21.1166667 Z M19,1.24344979e-14 C24.623053,1.24344979e-14 29.2990654,3.79166667 30.423676,8.925 C34.6853583,9.68333333 38,13.3 38,17.7333333 C38,22.6916667 33.8566978,26.7166667 28.7663551,26.7166667 C28.2928349,26.7166667 27.8193146,26.6793333 27.3760997,26.6046667 L27.0498442,26.5416667 L27.0498442,22.6333333 C27.5825545,22.8083333 28.1744548,22.925 28.7663551,22.925 C31.6666667,22.925 34.0934579,20.5916667 34.0934579,17.7333333 C34.0934579,14.875 31.7258567,12.5416667 28.7663551,12.5416667 C27.9968847,12.5416667 27.2866044,12.6583333 26.635514,12.95 C26.7538941,12.425 26.8130841,11.9 26.8130841,11.3166667 C26.8130841,7.11666667 23.3208723,3.73333333 19,3.73333333 C14.6791277,3.73333333 11.1869159,7.11666667 11.1869159,11.3166667 C11.1869159,11.8416667 11.2461059,12.425 11.364486,12.95 C10.7133956,12.7166667 10.0031153,12.5416667 9.23364486,12.5416667 C6.33333333,12.5416667 3.90654206,14.875 3.90654206,17.7333333 C3.90654206,20.5916667 6.2741433,22.925 9.23364486,22.925 C9.77622015,22.925 10.2776912,22.8439815 10.7380582,22.7157022 L11.0093458,22.6333333 L11.0093458,26.5416667 C10.4174455,26.6583333 9.82554517,26.7166667 9.23364486,26.7166667 C4.14330218,26.7166667 0,22.6916667 0,17.7333333 C0,13.3583333 3.25545171,9.68333333 7.57632399,8.925 C8.70093458,3.85 13.376947,1.24344979e-14 19,1.24344979e-14 Z M56.5124561,8.57317073 C57.5516426,8.57317073 58.3463147,8.75609756 58.7742151,9.12195122 C59.2021154,9.48780488 59.5077585,9.97560976 59.752273,10.6463415 L60.241302,12.1707317 C60.4246878,12.597561 60.7914596,13.2073171 61.2193599,13.9390244 C61.9529034,13.0853659 62.5641896,12.2926829 63.1143472,11.5609756 L64.4591769,9.67073171 C64.6425627,9.42682927 64.76482,9.30487805 64.9482058,9.12195122 C65.1315917,8.93902439 65.3761062,8.93902439 65.6817493,8.93902439 C65.9873924,8.93902439 66.2930355,9.06097561 66.53755,9.30487805 C66.8431931,9.54878049 66.9654504,9.85365854 66.9654504,10.2195122 C66.9654504,10.4634146 66.8431931,10.7073171 66.6598073,11.0731707 C66.4764214,11.4390244 66.048521,11.9878049 65.3761062,12.7195122 L63.6645048,14.7926829 L62.5641896,16.1341463 C62.8087041,16.5 63.1143472,16.804878 63.3588617,17.1707317 C63.6645048,17.5365854 64.1535338,18.0243902 64.8870772,18.7560976 C65.6206207,19.4878049 66.2930355,19.9756098 66.8431931,20.2195122 C67.3933507,20.4634146 67.7601224,20.7073171 67.8823797,20.8902439 C68.0046369,21.0731707 68.1268942,21.3170732 68.1268942,21.6219512 C68.1268942,21.9268293 68.0657656,22.2317073 67.8212511,22.5365854 C67.5767366,22.8414634 67.2099648,23.0243902 66.6598073,23.0853659 C66.1096497,23.1463415 65.1927203,22.597561 63.9701479,21.5 C62.7475755,20.402439 61.7695175,19.3658537 61.1582313,18.4512195 C60.5469451,17.5365854 59.9356589,16.5609756 59.4466299,15.5243902 L59.4466299,21.7439024 C59.4466299,22.2317073 59.3243727,22.7195122 59.1409868,23.2073171 C58.9576009,23.695122 58.2851861,23.9390244 57.0626137,24 L56.206813,24 C55.9622985,24 55.717784,23.8780488 55.4732695,23.8170732 C55.228755,23.7560976 55.0453691,23.5731707 54.9231119,23.4512195 C54.8008547,23.2682927 54.6785974,23.0243902 54.6785974,22.7195122 C54.6785974,22.4146341 54.739726,22.1707317 54.9231119,21.9268293 C55.1064978,21.6829268 55.3510122,21.6219512 55.7789126,21.6219512 L56.3290702,21.6829268 C56.6347133,21.6829268 56.8180992,21.6219512 56.8792278,21.5609756 C56.9403564,21.4390244 57.001485,21.195122 57.001485,20.7682927 L57.001485,11.7439024 C57.001485,11.5609756 56.9403564,11.3780488 56.8792278,11.195122 C56.8180992,11.0731707 56.7569705,10.9512195 56.6347133,10.8902439 C56.5735847,10.8292683 56.3901988,10.7682927 56.1456843,10.7682927 L53.3948964,10.7682927 C53.0892532,10.7682927 52.8447388,10.6463415 52.6613529,10.402439 C52.477967,10.1585366 52.3557098,9.85365854 52.4168384,9.54878049 C52.4168384,9.30487805 52.5390957,9.06097561 52.7224815,8.87804878 C52.9058674,8.69512195 53.1503819,8.57317073 53.456025,8.57317073 L56.5124561,8.57317073 Z M83.5924354,7.47560976 C84.0814644,7.59756098 84.3259789,7.84146341 84.3259789,8.32926829 C84.3259789,8.45121951 84.3259789,8.63414634 84.2037217,8.81707317 L84.0203358,9.36585366 L87.9936962,9.36585366 C88.4215966,9.36585366 88.7272397,9.48780488 88.8494969,9.79268293 C89.0328828,10.097561 89.0940114,10.3414634 89.0940114,10.5853659 C89.0940114,10.8292683 88.9717542,11.0731707 88.7883683,11.2560976 C88.5438538,11.4390244 88.2993393,11.5609756 88.0548248,11.5609756 L82.9811492,11.5609756 C82.2476058,12.902439 81.7585768,13.695122 81.6363196,13.9390244 C81.4529337,14.1829268 81.3918051,14.3658537 81.4529337,14.4268293 C81.5140623,14.4878049 81.6974482,14.5487805 82.0030913,14.5487805 L82.9200206,14.5487805 L82.9200206,13.2682927 C82.9200206,12.6585366 83.347921,12.2926829 84.142593,12.2926829 C84.9372651,12.2926829 85.3651655,12.597561 85.3651655,13.2073171 L85.3651655,14.4878049 L87.871439,14.4878049 C88.1770821,14.4878049 88.4215966,14.6097561 88.666111,14.7926829 C88.9106255,14.9756098 89.0328828,15.2804878 89.0328828,15.5853659 C89.0940114,15.9512195 88.9717542,16.195122 88.666111,16.3780488 C88.3604679,16.5609756 88.1770821,16.6219512 87.9325676,16.6219512 L85.3651655,16.6219512 L85.3651655,19.0609756 L88.666111,19.0609756 C88.9106255,19.0609756 89.15514,19.1829268 89.3996545,19.4268293 C89.644169,19.6707317 89.7052976,19.9146341 89.7052976,20.2804878 C89.7052976,20.4634146 89.5830404,20.7073171 89.3996545,20.9512195 C89.2162686,21.195122 88.9717542,21.3170732 88.666111,21.3170732 L85.3651655,21.3170732 L85.3651655,23.0243902 C85.3651655,23.2682927 85.2429082,23.5121951 84.9372651,23.695122 C84.631622,23.8780488 84.3871075,23.9390244 84.142593,23.9390244 C83.8980786,23.9390244 83.6535641,23.8780488 83.347921,23.695122 C83.0422779,23.5121951 82.9200206,23.3292683 82.9200206,23.0243902 L82.9200206,21.3170732 L78.8855316,21.3170732 C78.6410171,21.3170732 78.3965026,21.195122 78.1519881,20.9512195 C77.9686023,20.7073171 77.846345,20.3414634 77.9074736,19.8536585 C77.9686023,19.3658537 78.2742454,19.1219512 78.824403,19.1219512 L82.9200206,19.1219512 L82.9200206,16.6829268 L79.9247182,16.6829268 C79.619075,16.6829268 79.3134319,16.6829268 79.0689174,16.6219512 C78.824403,16.5609756 78.6410171,16.3780488 78.5187599,16.0731707 C78.4576312,15.7682927 78.3965026,15.5853659 78.3965026,15.402439 C78.3965026,15.2195122 78.4576312,15.0365854 78.5798885,14.7926829 C78.6410171,14.6707317 78.824403,14.4268293 79.1300461,14 C79.4356892,13.5731707 79.8635895,12.7804878 80.4748757,11.5609756 L79.1300461,11.5609756 C78.7632743,11.5609756 78.4576312,11.4390244 78.2742454,11.1341463 C78.0908595,10.8292683 78.0297309,10.5853659 78.0297309,10.3414634 C78.0297309,10.097561 78.1519881,9.85365854 78.3965026,9.67073171 C78.5798885,9.48780488 78.8855316,9.36585366 79.1300461,9.36585366 L81.3918051,9.36585366 C81.5751909,8.93902439 81.6974482,8.57317073 81.7585768,8.32926829 C81.8197054,8.08536585 81.9419627,7.84146341 82.0642199,7.7195122 C82.1864772,7.59756098 82.369863,7.47560976 82.6143775,7.41463415 C82.7977634,7.35365854 83.1645351,7.41463415 83.5924354,7.47560976 Z M53.0892532,12.1707317 C54.0673112,12.1707317 54.739726,12.4146341 55.1064978,12.8414634 C55.4732695,13.2682927 55.6566554,13.695122 55.6566554,14.1219512 C55.6566554,14.5487805 55.6566554,14.9756098 55.5955267,15.3414634 C55.4732695,16.0731707 55.228755,16.804878 54.9231119,17.4756098 C54.6174688,18.2073171 54.2506971,18.8780488 53.8839253,19.4878049 C53.5171536,20.097561 53.1503819,20.5853659 52.8447388,20.9512195 C52.5390957,21.3170732 52.1111953,21.7439024 51.4999091,22.3536585 C50.8886229,22.902439 50.4607225,23.2682927 50.1550794,23.4512195 C49.8494363,23.6341463 49.5437932,23.695122 49.1770215,23.695122 C48.8102497,23.695122 48.5657352,23.5731707 48.3212208,23.2682927 C48.0767063,22.9634146 47.954449,22.7195122 48.0155777,22.4146341 C48.0155777,22.1707317 48.1378349,21.9268293 48.3212208,21.6829268 C48.5046066,21.5 48.932507,21.1341463 49.6049218,20.6463415 C50.2773367,20.1585366 50.8886229,19.4268293 51.5610377,18.5121951 C52.2334525,17.5365854 52.6613529,16.6829268 52.8447388,15.8292683 C53.0704444,15.0412758 53.1398923,14.6169721 53.1011618,14.4604394 L53.097,14.447 C53.0598209,14.4637157 52.8854912,14.4268293 52.6002243,14.4268293 L50.3384653,14.4268293 C50.0328222,14.4268293 49.7883077,14.304878 49.6049218,14.1219512 C49.4215359,13.9390244 49.2992787,13.6341463 49.2992787,13.3292683 C49.2992787,13.0243902 49.3604073,12.7195122 49.5437932,12.4756098 C49.7271791,12.2317073 49.9716935,12.1707317 50.3384653,12.1707317 L53.0892532,12.1707317 Z M73.5062129,4.06097561 C73.8729846,4.06097561 74.1786277,4.18292683 74.3620136,4.42682927 C74.5453994,4.67073171 74.6065281,4.91463415 74.6065281,5.09756098 L74.6065281,10.7073171 L76.8071584,10.7073171 C77.0516729,10.7073171 77.2961874,10.8292683 77.4795733,11.0731707 C77.6629591,11.3170732 77.7240878,11.5609756 77.7240878,11.804878 C77.7240878,12.1097561 77.6018305,12.4146341 77.4184447,12.597561 C77.2350588,12.7804878 76.9905443,12.902439 76.8071584,12.902439 L76.2570009,12.902439 L76.2570009,17.6585366 L76.6839231,17.2326829 C76.7729264,17.1439024 76.8560613,17.0609756 76.9294157,16.9878049 C77.1128016,16.804878 77.2350588,16.6219512 77.357316,16.5609756 C77.4795733,16.5 77.6018305,16.4390244 77.846345,16.3780488 C78.0908595,16.3780488 78.2742454,16.3780488 78.4576312,16.5 C78.6410171,16.6219512 78.7632743,16.7439024 78.8855316,16.9268293 C79.0077888,17.1097561 79.0077888,17.3536585 78.9466602,17.6585366 C78.8855316,18.0243902 78.3965026,18.6341463 77.6629591,19.4268293 C76.8682871,20.2195122 76.3792581,20.7682927 76.073615,21.0121951 C75.7679719,21.2560976 75.4623288,21.4390244 75.095557,21.4390244 C74.6676567,21.4390244 74.3620136,21.3170732 74.1786277,21.1341463 C73.9952419,20.8902439 73.8729846,20.6463415 73.811856,20.3414634 C73.7507274,20.097561 73.811856,19.8536585 73.9341132,19.5487805 C74.0563705,19.2439024 74.1174991,19.1219512 74.1174991,19.0609756 L74.1174991,12.8414634 L73.4450843,12.8414634 C73.4450843,13.1463415 73.3839556,14 73.322827,15.402439 C73.2616984,16.804878 73.1394411,17.9634146 72.8949267,18.9390244 C72.6504122,19.9146341 72.4670263,20.5243902 72.4058977,20.8292683 C72.2836404,21.1341463 72.1002546,21.5 71.8557401,22.0487805 C71.6112256,22.5365854 71.4278397,22.902439 71.2444539,23.0243902 C71.061068,23.1463415 70.8165535,23.2073171 70.5109104,23.1463415 C70.2052673,23.0853659 69.9607528,22.902439 69.777367,22.597561 C69.5939811,22.2926829 69.5328525,22.0487805 69.5939811,21.804878 C69.6551097,21.6219512 69.7162383,21.3780488 69.8996242,21.1341463 C70.0218814,20.8902439 70.2052673,20.5243902 70.3886532,19.9756098 C70.572039,19.4268293 70.7554249,19 70.8776821,18.5121951 C70.9999394,18.0853659 71.1221966,17.2926829 71.1833253,16.195122 C71.2444539,15.097561 71.3055825,14.2439024 71.3055825,13.6341463 L71.3055825,12.902439 L70.6942963,12.902439 C70.4497818,12.902439 70.2663959,12.7804878 70.0218814,12.5365854 C69.777367,12.2926829 69.7162383,11.9878049 69.777367,11.5609756 C69.8384956,11.3780488 69.8996242,11.195122 70.0830101,11.0121951 C70.2663959,10.8292683 70.4497818,10.7073171 70.6942963,10.7073171 L72.2836404,10.7073171 L72.2836404,5.09756098 C72.2836404,4.85365854 72.4058977,4.6097561 72.5892836,4.36585366 C72.833798,4.18292683 73.1394411,4.06097561 73.5062129,4.06097561 Z M108.838556,11.5 C109.144199,11.5 109.449842,11.6219512 109.633228,11.8658537 C109.877743,12.1097561 109.938871,12.3536585 110,12.6585366 C110,12.9634146 109.877743,13.2682927 109.694357,13.5121951 C109.449842,13.7560976 109.205328,13.9390244 108.838556,13.9390244 L100.402806,13.9390244 L100.402806,14.0609756 C100.525064,14.1219512 100.647321,14.1829268 100.70845,14.2439024 C100.769578,14.304878 100.830707,14.4268293 100.830707,14.6097561 C100.830707,14.7926829 100.769578,14.9756098 100.70845,15.1585366 C100.463935,15.6463415 100.158292,16.1341463 99.7303916,16.6829268 C99.3024912,17.2317073 98.9357195,17.6585366 98.691205,17.9634146 L97.5908898,19.1829268 C97.2852467,19.5487805 97.1018608,19.7926829 96.9796036,19.8536585 C96.8573463,19.9146341 96.7962177,20.0365854 96.7350891,20.097561 C96.6739605,20.1585366 96.6739605,20.2195122 96.6739605,20.2804878 C96.6739605,20.3414634 97.0407322,20.402439 97.6520184,20.402439 C98.5078191,20.402439 99.5470057,20.3414634 100.891835,20.1585366 C102.236665,20.0365854 103.459237,19.7926829 104.620681,19.6097561 C104.315038,19.1829268 104.131652,18.8780488 103.948266,18.695122 L102.90908,17.4146341 C102.725694,17.1707317 102.664565,16.8658537 102.664565,16.6219512 C102.664565,16.3780488 102.786823,16.1341463 102.970209,15.8902439 C103.214723,15.6463415 103.459237,15.5243902 103.764881,15.5243902 C104.070524,15.5243902 104.315038,15.5853659 104.620681,15.7682927 C104.865196,15.9512195 105.10971,16.1341463 105.293096,16.3780488 C105.476482,16.6219512 106.02664,17.2317073 106.821312,18.2682927 C107.615984,19.304878 108.166141,19.9146341 108.349527,20.2195122 C108.532913,20.5243902 108.716299,20.7682927 108.838556,21.0731707 C108.960813,21.3780488 109.021942,21.6219512 109.021942,21.9268293 C109.021942,22.2317073 108.899685,22.5365854 108.65517,22.7804878 C108.410656,23.0853659 108.105013,23.2073171 107.738241,23.1463415 C107.188083,23.1463415 106.821312,22.9634146 106.576797,22.5365854 L106.087768,21.804878 C101.747636,22.4146341 98.3855619,22.7195122 96.0015456,22.7804878 C94.7789732,22.7804878 94.0454298,22.6585366 93.678658,22.4146341 C93.3118863,22.1707317 93.1285004,21.8658537 93.0673718,21.5 C93.0062432,21.1341463 93.1285004,20.7682927 93.3730149,20.3414634 C93.4952722,20.1585366 93.6175294,19.9756098 93.8620439,19.7317073 L95.0846163,18.3902439 C95.451388,18.0243902 95.8181598,17.5365854 96.2460601,16.9268293 C96.6739605,16.3170732 97.1018608,15.7682927 97.4075039,15.2804878 L97.9576615,14.304878 L98.202176,13.9390244 L92.2726997,13.9390244 C91.905928,13.9390244 91.6614135,13.8170732 91.416899,13.5731707 C91.1723845,13.3292683 91.1112559,13.0243902 91.0501273,12.7195122 C91.0501273,12.4146341 91.1112559,12.1097561 91.3557704,11.8658537 C91.5391563,11.6219512 91.8447994,11.5 92.2726997,11.5 L108.838556,11.5 Z M53.09,14.428 L53.097,14.447 L53.1006572,14.4428887 L53.09,14.428 Z M71.3055825,6.31707317 C71.4278397,6.43902439 71.550097,6.62195122 71.6723542,6.80487805 C71.7946115,6.98780488 71.8557401,7.23170732 71.9168687,7.47560976 C71.9779973,7.7195122 72.039126,8.02439024 72.1002546,8.3902439 C72.1613832,8.75609756 72.1613832,9.06097561 72.1002546,9.30487805 C72.039126,9.54878049 71.8557401,9.67073171 71.550097,9.85365854 C71.2444539,9.97560976 70.9388108,9.97560976 70.6942963,9.91463415 C70.5109104,9.85365854 70.4497818,9.79268293 70.3886532,9.67073171 C70.3275246,9.54878049 70.3275246,9.48780488 70.2663959,9.30487805 L70.0218814,8.08536585 C69.8996242,7.7195122 69.8384956,7.53658537 69.8384956,7.41463415 C69.8384956,7.29268293 69.8384956,7.1097561 69.8996242,6.92682927 C69.8996242,6.68292683 70.0830101,6.5 70.4497818,6.37804878 C70.8776821,6.19512195 71.1221966,6.19512195 71.3055825,6.31707317 Z M76.6237726,6.37804878 C77.0516729,6.5 77.2961874,6.86585366 77.2350588,7.53658537 C77.2350588,7.7804878 77.1739302,8.02439024 77.0516729,8.20731707 C76.9905443,8.45121951 76.8682871,8.63414634 76.7460298,8.87804878 C76.6237726,9.12195122 76.4403867,9.36585366 76.1958722,9.6097561 C75.9513577,9.85365854 75.6457146,9.91463415 75.2789429,9.73170732 C74.9121712,9.54878049 74.6676567,9.30487805 74.6676567,9.06097561 C74.6065281,8.81707317 74.6676567,8.51219512 74.8510426,8.08536585 C74.9121712,7.90243902 75.0344284,7.65853659 75.1566857,7.29268293 C75.4012001,6.98780488 75.4623288,6.80487805 75.4623288,6.80487805 C75.5234574,6.62195122 75.6457146,6.5 75.7679719,6.37804878 C75.8902291,6.25609756 76.1958722,6.31707317 76.6237726,6.37804878 Z M86.8322524,4.79268293 C87.1990241,4.79268293 87.6269245,4.85365854 87.9936962,4.91463415 C88.3604679,4.97560976 88.666111,5.15853659 88.9106255,5.2804878 C89.15514,5.40243902 89.3385259,5.64634146 89.3996545,5.95121951 C89.4607831,6.25609756 89.5830404,6.56097561 89.5830404,6.86585366 L89.5830404,7.90243902 C89.5830404,8.14634146 89.4607831,8.3902439 89.2773973,8.51219512 C89.0940114,8.63414634 88.8494969,8.75609756 88.5438538,8.75609756 C88.1770821,8.75609756 87.871439,8.69512195 87.6880531,8.57317073 C87.4435386,8.3902439 87.3212814,8.20731707 87.3212814,7.96341463 L87.3212814,7.47560976 C87.3212814,7.35365854 87.3212814,7.23170732 87.2601527,7.17073171 C87.1990241,7.1097561 87.1990241,7.04878049 87.1378955,7.04878049 C87.0767669,6.92682927 86.9545096,6.92682927 86.6488665,6.92682927 L80.4137471,6.92682927 C80.108104,6.92682927 79.9247182,6.98780488 79.8635895,7.1097561 C79.8024609,7.23170732 79.7413323,7.35365854 79.7413323,7.47560976 L79.7413323,7.7804878 C79.7413323,8.08536585 79.619075,8.26829268 79.3745606,8.45121951 C79.1300461,8.63414634 78.824403,8.69512195 78.5187599,8.69512195 C78.1519881,8.69512195 77.846345,8.57317073 77.6629591,8.3902439 C77.4795733,8.20731707 77.357316,7.96341463 77.357316,7.7195122 L77.357316,6.80487805 C77.357316,5.46341463 78.335374,4.79268293 80.2303613,4.79268293 L86.8322524,4.79268293 Z M54.9842405,4 C55.228755,4 55.5343981,4.06097561 55.9622985,4.18292683 C56.3290702,4.30487805 57.0626137,4.54878049 58.1018002,4.91463415 C59.1409868,5.2804878 60.0579161,5.64634146 60.7914596,5.95121951 C61.525003,6.25609756 61.8917748,6.62195122 61.9529034,7.1097561 C61.9529034,7.59756098 61.8917748,7.90243902 61.7083889,8.14634146 C61.525003,8.3902439 61.2193599,8.51219512 60.8525882,8.51219512 C60.5469451,8.57317073 59.6300158,8.26829268 58.1629288,7.65853659 C56.6958419,7.04878049 55.717784,6.68292683 55.1676264,6.5 C54.6174688,6.31707317 54.3118257,6.19512195 54.0673112,6.01219512 C53.8227967,5.76829268 53.7005395,5.58536585 53.7005395,5.2804878 C53.6394108,4.91463415 53.7616681,4.6097561 54.0673112,4.36585366 C54.3118257,4.12195122 54.6785974,4 54.9842405,4 Z M106.087768,5.46341463 C106.45454,5.46341463 106.760183,5.58536585 107.004698,5.82926829 C107.249212,6.07317073 107.371469,6.37804878 107.371469,6.68292683 C107.371469,6.98780488 107.310341,7.29268293 107.065826,7.53658537 C106.821312,7.84146341 106.515669,7.96341463 106.087768,7.96341463 L94.9012305,7.96341463 C94.5344587,7.96341463 94.2288156,7.84146341 93.9843011,7.53658537 C93.7397866,7.23170732 93.6175294,6.98780488 93.678658,6.62195122 C93.678658,6.31707317 93.8009153,6.01219512 94.0454298,5.82926829 C94.2899442,5.58536585 94.5955873,5.46341463 94.9012305,5.46341463 L106.087768,5.46341463 Z" id="形状结合"></path>
            </g>
        </g>
    </g>
</svg>