<?xml version="1.0" encoding="UTF-8"?>
<svg width="80px" height="80px" viewBox="0 0 80 80" version="1.1" xmlns="http://www.w3.org/2000/svg" xmlns:xlink="http://www.w3.org/1999/xlink">
    <!-- Generator: Sketch 59.1 (86144) - https://sketch.com -->
    <title>良好的视觉效果</title>
    <desc>Created with Sketch.</desc>
    <g id="页面-1" stroke="none" stroke-width="1" fill="none" fill-rule="evenodd">
        <g id="官网解决方案" transform="translate(-1070.000000, -1347.000000)">
            <g id="良好的视觉效果" transform="translate(1070.000000, 1347.000000)">
                <path d="M72.743808,57.9793392 L68.5452437,54.1790541 C67.5455855,53.3789941 68.945107,51.778874 69.9447651,52.5789341 L74.1433294,56.3792192 C74.7431244,56.9792642 75.1429876,57.5793092 74.7431243,58.3793692 C73.0820893,61.8701692 70.9273862,65.1035718 68.3453121,67.9800897 C67.3456539,69.1801797 65.9461325,67.5800596 66.745859,66.5799846 C69.2707993,64.1106368 71.3059095,61.1856426 72.743808,57.9593377 L72.743808,57.9793392 Z M34.0170508,0.395018522 C23.5212436,1.93100089 14.0907547,7.64358646 7.86599324,16.2362071 C1.50375109,24.7522672 -1.16260712,35.4726134 0.46852281,45.9784388 C1.92987401,56.4846249 7.63104796,65.9327133 16.2431286,72.1204003 C24.6903847,78.4780296 35.345886,81.1538344 45.7930239,79.5409571 C52.9847534,78.5193333 59.7565762,75.536828 65.3663308,70.9203103 C66.7658522,69.7202202 65.3663308,68.3201151 64.3666726,69.1201752 C59.0409221,73.6628563 52.5263004,76.5849005 45.5930923,77.540807 C35.6467585,79.0714563 25.5024072,76.5458937 17.4332948,70.5300744 C9.36418234,64.5142552 4.04501549,55.5111981 2.6677708,45.5384058 C1.09976912,35.5497295 3.61442677,25.3499459 9.64538474,17.2362822 C15.6589962,9.12581221 24.6364219,3.72560543 34.6168457,2.21515512 C44.5534371,0.662200208 54.6960068,3.18627965 62.7472264,9.21568041 C70.7273087,15.1593921 76.0375901,24.0159482 77.522174,33.8575293 L71.7241567,34.6575894 C71.0462581,34.8152811 70.4658362,35.2507791 70.1247037,35.8576794 C69.8826264,36.5474033 70.0359432,37.3143067 70.5245669,37.8578295 L76.9223791,45.4784012 C77.3288877,45.9556023 77.976529,46.1513198 78.579137,45.9790743 C79.1817451,45.8068288 79.6282744,45.2983607 79.721422,44.6783412 C80.1508171,41.0792838 80.0835433,37.4382529 79.5214903,33.8575293 C78.0861291,23.3150724 72.3822462,13.8263333 63.7468846,7.61556027 C55.110672,1.52436602 44.4836815,-1.05663153 34.0170508,0.395018522 Z" id="形状" fill="#9AB9FF" fill-rule="nonzero"></path>
                <g id="编组-6" transform="translate(20.000000, 20.000000)">
                    <path d="M9.88378792,1.66937718 L17.222883,15.5321123 C17.4812902,16.0202149 17.2950854,16.6253807 16.8069828,16.8837879 C16.6628316,16.9601033 16.5022012,17 16.3390951,17 L1.66090494,17 C1.10862019,17 0.660904945,16.5522847 0.660904945,16 C0.660904945,15.8368939 0.700801679,15.6762635 0.777117028,15.5321123 L8.11621208,1.66937718 C8.37461934,1.18127459 8.97978513,0.995069727 9.46788772,1.25347698 C9.64507851,1.34728387 9.78998103,1.49218639 9.88378792,1.66937718 Z" id="三角形" fill="#4881FF" fill-rule="nonzero"></path>
                    <circle id="椭圆形" fill="#9AB9FF" cx="9" cy="31.5" r="8.5"></circle>
                    <rect id="矩形" fill="#9AB9FF" x="23" y="1" width="16" height="16" rx="2"></rect>
                    <path d="M31.7071068,22.7071068 L39.2928932,30.2928932 C39.6834175,30.6834175 39.6834175,31.3165825 39.2928932,31.7071068 L31.7071068,39.2928932 C31.3165825,39.6834175 30.6834175,39.6834175 30.2928932,39.2928932 L22.7071068,31.7071068 C22.3165825,31.3165825 22.3165825,30.6834175 22.7071068,30.2928932 L30.2928932,22.7071068 C30.6834175,22.3165825 31.3165825,22.3165825 31.7071068,22.7071068 Z" id="矩形" fill="#4881FF" fill-rule="nonzero"></path>
                </g>
            </g>
        </g>
    </g>
</svg>