<?xml version="1.0" encoding="UTF-8"?>
<svg width="80px" height="80px" viewBox="0 0 80 80" version="1.1" xmlns="http://www.w3.org/2000/svg" xmlns:xlink="http://www.w3.org/1999/xlink">
    <!-- Generator: Sketch 59.1 (86144) - https://sketch.com -->
    <title>访问速度快</title>
    <desc>Created with Sketch.</desc>
    <g id="页面-1" stroke="none" stroke-width="1" fill="none" fill-rule="evenodd">
        <g id="官网解决方案" transform="translate(-290.000000, -1347.000000)" fill-rule="nonzero">
            <g id="访问速度快" transform="translate(290.000000, 1347.000000)">
                <path d="M72.743808,57.9793392 L68.5452437,54.1790541 C67.5455855,53.3789941 68.945107,51.778874 69.9447651,52.5789341 L74.1433294,56.3792192 C74.7431244,56.9792642 75.1429876,57.5793092 74.7431243,58.3793692 C73.0820893,61.8701692 70.9273862,65.1035718 68.3453121,67.9800897 C67.3456539,69.1801797 65.9461325,67.5800596 66.745859,66.5799846 C69.2707993,64.1106368 71.3059095,61.1856426 72.743808,57.9593377 L72.743808,57.9793392 Z M34.0170508,0.395018522 C23.5212436,1.93100089 14.0907547,7.64358646 7.86599324,16.2362071 C1.50375109,24.7522672 -1.16260712,35.4726134 0.46852281,45.9784388 C1.92987401,56.4846249 7.63104796,65.9327133 16.2431286,72.1204003 C24.6903847,78.4780296 35.345886,81.1538344 45.7930239,79.5409571 C52.9847534,78.5193333 59.7565762,75.536828 65.3663308,70.9203103 C66.7658522,69.7202202 65.3663308,68.3201151 64.3666726,69.1201752 C59.0409221,73.6628563 52.5263004,76.5849005 45.5930923,77.540807 C35.6467585,79.0714563 25.5024072,76.5458937 17.4332948,70.5300744 C9.36418234,64.5142552 4.04501549,55.5111981 2.6677708,45.5384058 C1.09976912,35.5497295 3.61442677,25.3499459 9.64538474,17.2362822 C15.6589962,9.12581221 24.6364219,3.72560543 34.6168457,2.21515512 C44.5534371,0.662200208 54.6960068,3.18627965 62.7472264,9.21568041 C70.7273087,15.1593921 76.0375901,24.0159482 77.522174,33.8575293 L71.7241567,34.6575894 C71.0462581,34.8152811 70.4658362,35.2507791 70.1247037,35.8576794 C69.8826264,36.5474033 70.0359432,37.3143067 70.5245669,37.8578295 L76.9223791,45.4784012 C77.3288877,45.9556023 77.976529,46.1513198 78.579137,45.9790743 C79.1817451,45.8068288 79.6282744,45.2983607 79.721422,44.6783412 C80.1508171,41.0792838 80.0835433,37.4382529 79.5214903,33.8575293 C78.0861291,23.3150724 72.3822462,13.8263333 63.7468846,7.61556027 C55.110672,1.52436602 44.4836815,-1.05663153 34.0170508,0.395018522 Z" id="形状" fill="#9AB9FF"></path>
                <path d="M22.3807722,56.1006353 C22.1762736,56.741719 22.371881,57.2670515 22.8875731,57.5608815 C23.2432228,57.7567682 23.5988725,57.7122485 23.9634135,57.5875934 C25.1815139,57.1780121 26.4085055,56.7684308 27.6266058,56.3677535 C28.1956454,56.1807707 28.2045366,56.1807707 28.2223191,56.8040466 C28.2312103,57.1423963 28.2223191,57.4807461 28.2401016,57.8190958 C28.2667753,58.3533323 28.5157301,58.7362017 29.0314222,58.9231845 C29.5382231,59.1101672 29.9294378,58.9409924 30.2939788,58.5759308 C31.3787105,57.4807461 32.4812247,56.3855614 33.5659564,55.2903767 C34.3039296,54.5513496 34.0727572,53.5808201 33.0858292,53.2424703 C32.5345721,53.0554876 32.0010975,52.8239851 31.4942967,52.547963 C29.2003559,51.2746994 27.6266058,49.395968 26.7552639,46.9206725 C26.5329829,46.2884927 26.1951156,46.0124705 25.5727286,46.0035666 C25.2793175,45.9768548 25.0125802,46.1015099 24.7814079,46.3330124 L21.3671705,49.7521256 C21.020412,50.0993793 20.9048258,50.5178645 21.0826507,50.9897733 C21.2693668,51.4794901 21.642799,51.7288004 22.1584911,51.7555122 C22.5141409,51.7733201 22.8697906,51.7644162 23.2165491,51.7733201 C23.8033711,51.7822241 23.8122624,51.791128 23.6344375,52.3342684 C23.2165491,53.589724 22.7897694,54.8451797 22.3807722,56.1006353 L22.3807722,56.1006353 Z" id="路径" fill="#9AB9FF"></path>
                <path d="M54.0650505,21.1115976 C55.3579026,20.9781185 56.667545,20.9280639 57.9687922,21.1699946 C58.6823795,21.2951313 58.71596,21.328501 58.8250969,22.0125811 C58.9342338,22.6966613 59.0265803,23.3890838 58.9929998,24.0898489 C58.8838629,27.5936739 58.1283,30.9640199 56.8522381,34.2342566 C55.3327172,38.1468613 53.1080041,41.5839468 49.9850107,44.4287191 C49.7247612,44.653965 49.6492049,44.9042382 49.6827855,45.2295934 C49.7919224,46.2807409 49.8758738,47.3318884 49.9850107,48.3830359 C50.236865,50.8357135 49.3721652,52.8378992 47.3825161,54.2644565 C45.2501497,55.7911232 43.0254366,57.2009956 40.825909,58.627553 C39.4407103,59.5285366 37.728101,58.7109774 37.5769884,57.075859 C37.4006904,55.1988099 37.2663681,53.3217608 37.1320458,51.4363692 C37.0648846,50.4936734 37.0900701,50.485331 36.1749994,50.3685368 C33.7404078,50.051524 31.8347102,48.9002672 30.5250678,46.8146571 C29.8534563,45.7468247 29.5176505,44.5538557 29.4001185,43.310832 C29.3581428,42.9354222 29.2070302,42.8353129 28.8544342,42.818628 C26.8815754,42.7101763 24.9171118,42.5933821 22.9442531,42.4432182 C21.3072001,42.3180816 20.4760809,40.6078813 21.3575709,39.1729815 C21.9704164,38.1635462 22.6252376,37.1791382 23.2632685,36.1863877 C23.9516703,35.1185553 24.6316769,34.0423805 25.3200787,32.9745481 C26.5709551,31.0140746 28.3843061,29.9545846 30.7097609,29.9378997 C32.0361936,29.9295573 33.3710214,30.1631456 34.6974541,30.3049671 C34.9493084,30.3299944 35.1256065,30.2966247 35.3019045,30.1047485 C38.3913173,26.6843479 42.2027125,24.3651494 46.5262115,22.8217979 C48.9691983,21.9458416 51.4877414,21.3785557 54.0650505,21.1115976 Z M51.6252659,25.0006014 C49.7046878,24.966821 48.047851,26.3585758 48.0005128,28.5340373 C47.9666998,30.3446698 49.6100114,31.9864 51.4426758,31.9999122 C53.3970669,32.0134243 54.9727525,30.4662794 54.9998029,28.513769 C55.0200907,26.6423317 53.4714555,25.0343819 51.6252659,25.0006014 Z" id="形状结合" fill="#4881FF"></path>
            </g>
        </g>
    </g>
</svg>