<?xml version="1.0" encoding="UTF-8"?>
<svg width="79px" height="84px" viewBox="0 0 79 84" version="1.1" xmlns="http://www.w3.org/2000/svg" xmlns:xlink="http://www.w3.org/1999/xlink">
    <!-- Generator: Sketch 59.1 (86144) - https://sketch.com -->
    <title>icon-弹性计算</title>
    <desc>Created with Sketch.</desc>
    <g id="页面-1" stroke="none" stroke-width="1" fill="none" fill-rule="evenodd">
        <g id="官网解决方案" transform="translate(-944.000000, -1982.000000)">
            <g id="icon-弹性计算" transform="translate(944.000000, 1982.000000)">
                <polygon id="路径" fill="#F2F6FC" fill-rule="nonzero" points="45 9 11 27.7826631 11 65.2173369 45 84 79 65.2173369 79 27.7826631"></polygon>
                <path d="M73,46 C73.5522847,46 74,46.4477153 74,47 L74,58.8231933 C74,59.5495276 73.6062162,60.2187688 72.9712859,60.5715079 L38.9712859,79.4603967 C38.3672408,79.7959773 37.6327592,79.7959773 37.0287141,79.4603967 L3.02871414,60.5715079 C2.39378377,60.2187688 2,59.5495276 2,58.8231933 L2,48 L4,48 L4,58.8231933 L38,77.7120822 L72,58.8231933 L72,47 C72,46.4477153 72.4477153,46 73,46 Z M58,23 C59.1045695,23 60,23.8954305 60,25 L60,37 C60,38.1045695 59.1045695,39 58,39 L55,39 L55,42.9999178 L58,43 C59.1045695,43 60,43.8954305 60,45 L60,57 C60,58.1045695 59.1045695,59 58,59 L18,59 C16.8954305,59 16,58.1045695 16,57 L16,45 C16,43.8954305 16.8954305,43 18,43 L22,42.9999178 L22,39 L18,39 C16.8954305,39 16,38.1045695 16,37 L16,25 C16,23.8954305 16.8954305,23 18,23 L58,23 Z M58,45 L18,45 L18,57 L58,57 L58,45 Z M47,50 C47.5522847,50 48,50.4477153 48,51 C48,51.5522847 47.5522847,52 47,52 L25,52 C24.4477153,52 24,51.5522847 24,51 C24,50.4477153 24.4477153,50 25,50 L47,50 Z M53,39 L24,39 L24,42.9999178 L53,42.9999178 L53,39 Z M58,25 L18,25 L18,37 L58,37 L58,25 Z M4,33 C4,33.5522847 3.55228475,34 3,34 C2.44771525,34 2,33.5522847 2,33 L2,21.1768067 C2,20.4504724 2.39378377,19.7812312 3.02871414,19.4284921 L37.0287141,0.539603257 C37.6327592,0.20402266 38.3672408,0.20402266 38.9712859,0.539603257 L72.9712859,19.4284921 C73.6062162,19.7812312 74,20.4504724 74,21.1768067 L74,32 L72,32 L72,21.1768067 L38,2.28791781 L4,21.1768067 L4,33 Z M51,30 C51.5522847,30 52,30.4477153 52,31 C52,31.5522847 51.5522847,32 51,32 L29,32 C28.4477153,32 28,31.5522847 28,31 C28,30.4477153 28.4477153,30 29,30 L51,30 Z" id="形状结合" fill="#A8B7D8" fill-rule="nonzero"></path>
                <circle id="椭圆形" fill="#4881FF" cx="27" cy="31" r="3"></circle>
                <circle id="椭圆形" fill="#4881FF" cx="49" cy="51" r="3"></circle>
                <circle id="椭圆形" fill="#4881FF" cx="3" cy="46" r="3"></circle>
                <circle id="椭圆形" fill="#4881FF" cx="73" cy="34" r="3"></circle>
            </g>
        </g>
    </g>
</svg>