<?xml version="1.0" encoding="UTF-8"?>
<svg width="79px" height="84px" viewBox="0 0 79 84" version="1.1" xmlns="http://www.w3.org/2000/svg" xmlns:xlink="http://www.w3.org/1999/xlink">
    <!-- Generator: Sketch 59.1 (86144) - https://sketch.com -->
    <title>icon-管理简单</title>
    <desc>Created with Sketch.</desc>
    <g id="页面-1" stroke="none" stroke-width="1" fill="none" fill-rule="evenodd">
        <g id="云服务器" transform="translate(-944.000000, -1319.000000)">
            <g id="icon-管理简单" transform="translate(944.000000, 1319.000000)">
                <polygon id="路径" fill="#F2F6FC" fill-rule="nonzero" points="45 9 11 27.7826631 11 65.2173369 45 84 79 65.2173369 79 27.7826631"></polygon>
                <path d="M73,46 C73.5522847,46 74,46.4477153 74,47 L74,58.8231933 C74,59.5495276 73.6062162,60.2187688 72.9712859,60.5715079 L38.9712859,79.4603967 C38.3672408,79.7959773 37.6327592,79.7959773 37.0287141,79.4603967 L3.02871414,60.5715079 C2.39378377,60.2187688 2,59.5495276 2,58.8231933 L2,48 L4,48 L4,58.8231933 L38,77.7120822 L72,58.8231933 L72,47 C72,46.4477153 72.4477153,46 73,46 Z M56,24 C57.1045695,24 58,24.8954305 58,26 L58,54 C58,55.1045695 57.1045695,56 56,56 L20,56 C18.8954305,56 18,55.1045695 18,54 L18,26 C18,24.8954305 18.8954305,24 20,24 L56,24 Z M56,26 L20,26 L20,54 L56,54 L56,26 Z M40,45 C40.5522847,45 41,45.4477153 41,46 C41,46.5522847 40.5522847,47 40,47 L27,47 C26.4477153,47 26,46.5522847 26,46 C26,45.4477153 26.4477153,45 27,45 L40,45 Z M49,45 C49.5522847,45 50,45.4477153 50,46 C50,46.5522847 49.5522847,47 49,47 L44,47 C43.4477153,47 43,46.5522847 43,46 C43,45.4477153 43.4477153,45 44,45 L49,45 Z M32,39 C32.5522847,39 33,39.4477153 33,40 C33,40.5522847 32.5522847,41 32,41 L27,41 C26.4477153,41 26,40.5522847 26,40 C26,39.4477153 26.4477153,39 27,39 L32,39 Z M49,39 C49.5522847,39 50,39.4477153 50,40 C50,40.5522847 49.5522847,41 49,41 L36,41 C35.4477153,41 35,40.5522847 35,40 C35,39.4477153 35.4477153,39 36,39 L49,39 Z M49,33 C49.5522847,33 50,33.4477153 50,34 C50,34.5522847 49.5522847,35 49,35 L27,35 C26.4477153,35 26,34.5522847 26,34 C26,33.4477153 26.4477153,33 27,33 L49,33 Z M4,33 C4,33.5522847 3.55228475,34 3,34 C2.44771525,34 2,33.5522847 2,33 L2,21.1768067 C2,20.4504724 2.39378377,19.7812312 3.02871414,19.4284921 L37.0287141,0.539603257 C37.6327592,0.20402266 38.3672408,0.20402266 38.9712859,0.539603257 L72.9712859,19.4284921 C73.6062162,19.7812312 74,20.4504724 74,21.1768067 L74,32 L72,32 L72,21.1768067 L38,2.28791781 L4,21.1768067 L4,33 Z" id="形状结合" fill="#A8B7D8" fill-rule="nonzero"></path>
                <circle id="椭圆形" fill="#4881FF" cx="57" cy="55" r="3"></circle>
                <circle id="椭圆形" fill="#4881FF" cx="19" cy="25" r="3"></circle>
                <circle id="椭圆形" fill="#4881FF" cx="3" cy="46" r="3"></circle>
                <circle id="椭圆形" fill="#4881FF" cx="73" cy="34" r="3"></circle>
            </g>
        </g>
    </g>
</svg>