<?xml version="1.0" encoding="UTF-8"?>
<svg width="30px" height="30px" viewBox="0 0 30 30" version="1.1" xmlns="http://www.w3.org/2000/svg" xmlns:xlink="http://www.w3.org/1999/xlink">
    <!-- Generator: Sketch 59.1 (86144) - https://sketch.com -->
    <title>icon-eip-30</title>
    <desc>Created with Sketch.</desc>
    <g id="页面-1" stroke="none" stroke-width="1" fill="none" fill-rule="evenodd">
        <g id="定价-价格计算器-公网IP" transform="translate(-168.000000, -419.000000)">
            <g id="icon-eip-30" transform="translate(168.000000, 419.000000)">
                <path d="M15,0 C21.0751322,0 26,4.92486775 26,11 C26,17.0751322 17.0800171,26 15,26 C12.9199829,26 4,17.0751322 4,11 C4,4.92486775 8.92486775,0 15,0 Z M15,2 C10.0294373,2 6,6.02943725 6,11 C6,15.9705627 14.0300293,24 15,24 C15.9699707,24 24,15.9705627 24,11 C24,6.02943725 19.9705627,2 15,2 Z" id="Combined-Shape" fill="#B6BAC2"></path>
                <rect id="Rectangle-14" fill="#A5C1FF" x="15.5" y="9.5" width="4" height="3"></rect>
                <path d="M15,24 C16.6568542,24 18,25.3431458 18,27 C18,28.6568542 16.6568542,30 15,30 C13.3431458,30 12,28.6568542 12,27 C12,25.3431458 13.3431458,24 15,24 Z M15,26 C14.4477153,26 14,26.4477153 14,27 C14,27.5522847 14.4477153,28 15,28 C15.5522847,28 16,27.5522847 16,27 C16,26.4477153 15.5522847,26 15,26 Z" id="Combined-Shape" fill="#B6BAC2"></path>
                <path d="M19,7 C19.5522847,7 20,7.44771525 20,8 L20,13 C20,13.5522847 19.5522847,14 19,14 L14,14 C13.4477153,14 13,13.5522847 13,13 L13,8 C13,7.44771525 13.4477153,7 14,7 L19,7 Z M18,9 L15,9 L15,12 L18,12 L18,9 Z" id="Combined-Shape" fill="#B6BAC2"></path>
                <path d="M14,8 C14.5522847,8 15,8.44771525 15,9 L15,17 C15,17.5522847 14.5522847,18 14,18 C13.4477153,18 13,17.5522847 13,17 L13,9 C13,8.44771525 13.4477153,8 14,8 Z" id="Rectangle-17" fill="#B6BAC2"></path>
                <rect id="I" fill="#B6BAC2" x="10" y="7" width="2" height="11" rx="1"></rect>
                <rect id="Rectangle-16" fill="#B6BAC2" x="0" y="26" width="13" height="2"></rect>
                <rect id="Rectangle-16" fill="#B6BAC2" x="17" y="26" width="13" height="2"></rect>
            </g>
        </g>
    </g>
</svg>