<?xml version="1.0" encoding="UTF-8"?>
<svg width="79px" height="84px" viewBox="0 0 79 84" version="1.1" xmlns="http://www.w3.org/2000/svg" xmlns:xlink="http://www.w3.org/1999/xlink">
    <!-- Generator: Sketch 59.1 (86144) - https://sketch.com -->
    <title>icon-多样化配置</title>
    <desc>Created with Sketch.</desc>
    <g id="页面-1" stroke="none" stroke-width="1" fill="none" fill-rule="evenodd">
        <g id="云服务器" transform="translate(-544.000000, -1319.000000)">
            <g id="icon-多样化配置" transform="translate(544.000000, 1319.000000)">
                <polygon id="路径" fill="#F2F6FC" fill-rule="nonzero" points="45 9 11 27.7826631 11 65.2173369 45 84 79 65.2173369 79 27.7826631"></polygon>
                <path d="M73,46 C73.5522847,46 74,46.4477153 74,47 L74,58.8231933 C74,59.5495276 73.6062162,60.2187688 72.9712859,60.5715079 L38.9712859,79.4603967 C38.3672408,79.7959773 37.6327592,79.7959773 37.0287141,79.4603967 L3.02871414,60.5715079 C2.39378377,60.2187688 2,59.5495276 2,58.8231933 L2,48 L4,48 L4,58.8231933 L38,77.7120822 L72,58.8231933 L72,47 C72,46.4477153 72.4477153,46 73,46 Z M32,37 C33.1045695,37 34,37.8954305 34,39 L34,58 C34,59.1045695 33.1045695,60 32,60 L19,60 C17.8954305,60 17,59.1045695 17,58 L17,39 C17,37.8954305 17.8954305,37 19,37 L32,37 Z M32,39 L19,39 L19,58 L32,58 L32,39 Z M38,55 L38,57 L36,57 L36,55 L38,55 Z M42,55 L42,57 L40,57 L40,55 L42,55 Z M46,55 L46,57 L44,57 L44,55 L46,55 Z M29,52 C29.5522847,52 30,52.4477153 30,53 C30,53.5522847 29.5522847,54 29,54 L22,54 C21.4477153,54 21,53.5522847 21,53 C21,52.4477153 21.4477153,52 22,52 L29,52 Z M52,49 L52,51 L50,51 L50,49 L52,49 Z M52,45 L52,47 L50,47 L50,45 L52,45 Z M57,20 C58.1045695,20 59,20.8954305 59,22 L59,41 C59,42.1045695 58.1045695,43 57,43 L44,43 C42.8954305,43 42,42.1045695 42,41 L42,22 C42,20.8954305 42.8954305,20 44,20 L57,20 Z M57,22 L44,22 L44,41 L57,41 L57,22 Z M26,33 L26,35 L24,35 L24,33 L26,33 Z M38.9712859,0.539603257 L72.9712859,19.4284921 C73.6062162,19.7812312 74,20.4504724 74,21.1768067 L74,32 L72,32 L72,21.1768067 L38,2.28791781 L4,21.1768067 L4,33 C4,33.5522847 3.55228475,34 3,34 C2.44771525,34 2,33.5522847 2,33 L2,21.1768067 C2,20.4504724 2.39378377,19.7812312 3.02871414,19.4284921 L37.0287141,0.539603257 C37.6327592,0.20402266 38.3672408,0.20402266 38.9712859,0.539603257 Z M26,29 L26,31 L24,31 L24,29 L26,29 Z M54,26 C54.5522847,26 55,26.4477153 55,27 C55,27.5522847 54.5522847,28 54,28 L47,28 C46.4477153,28 46,27.5522847 46,27 C46,26.4477153 46.4477153,26 47,26 L54,26 Z M32,23 L32,25 L30,25 L30,23 L32,23 Z M36,23 L36,25 L34,25 L34,23 L36,23 Z M40,23 L40,25 L38,25 L38,23 L40,23 Z" id="形状结合" fill="#A8B7D8" fill-rule="nonzero"></path>
                <circle id="椭圆形" fill="#4881FF" cx="3" cy="46" r="3"></circle>
                <circle id="椭圆形" fill="#4881FF" cx="73" cy="34" r="3"></circle>
                <circle id="椭圆形" fill="#4881FF" cx="25" cy="24" r="3"></circle>
                <circle id="椭圆形" fill="#4881FF" cx="51" cy="56" r="3"></circle>
            </g>
        </g>
    </g>
</svg>