<?xml version="1.0" encoding="UTF-8"?>
<svg width="35px" height="33px" viewBox="0 0 35 33" version="1.1" xmlns="http://www.w3.org/2000/svg" xmlns:xlink="http://www.w3.org/1999/xlink">
    <!-- Generator: Sketch 59.1 (86144) - https://sketch.com -->
    <title>icon-loadbalance-35</title>
    <desc>Created with Sketch.</desc>
    <g id="页面-1" stroke="none" stroke-width="1" fill="none" fill-rule="evenodd">
        <g id="官网解决方案" transform="translate(-1135.000000, -3516.000000)">
            <g id="icon-loadbalance-35" transform="translate(1135.000000, 3516.000000)">
                <path d="M1,4 L20,4 L20,4 L20,6 L1,6 C0.44771525,6 6.76353751e-17,5.55228475 0,5 C-6.76353751e-17,4.44771525 0.44771525,4 1,4 Z" id="Rectangle-26" fill="#FFFFFF"></path>
                <path d="M29,4 L34,4 C34.5522847,4 35,4.44771525 35,5 C35,5.55228475 34.5522847,6 34,6 L29,6 L29,6 L29,4 Z" id="Rectangle-26" fill="#FFFFFF"></path>
                <path d="M24.5,0 C26.4329966,-3.55085719e-16 28,1.56700338 28,3.5 L28,5.5 C28,7.43299662 26.4329966,9 24.5,9 C22.5670034,9 21,7.43299662 21,5.5 L21,3.5 C21,1.56700338 22.5670034,3.55085719e-16 24.5,0 Z M24.5,2.25 C23.8556678,2.25 23.3333333,2.77233446 23.3333333,3.41666667 L23.3333333,3.41666667 L23.3333333,5.58333333 C23.3333333,6.22766554 23.8556678,6.75 24.5,6.75 C25.1443322,6.75 25.6666667,6.22766554 25.6666667,5.58333333 L25.6666667,5.58333333 L25.6666667,3.41666667 C25.6666667,2.77233446 25.1443322,2.25 24.5,2.25 Z" id="Combined-Shape" fill="#FFFFFF"></path>
                <path d="M1,16 L13,16 L13,16 L13,18 L1,18 C0.44771525,18 6.76353751e-17,17.5522847 0,17 C-6.76353751e-17,16.4477153 0.44771525,16 1,16 Z" id="Rectangle-26" fill="#FFFFFF"></path>
                <path d="M22,16 L34,16 C34.5522847,16 35,16.4477153 35,17 C35,17.5522847 34.5522847,18 34,18 L22,18 L22,18 L22,16 Z" id="Rectangle-26" fill="#FFFFFF"></path>
                <path d="M17.5,12 C19.4329966,12 21,13.5670034 21,15.5 L21,17.5 C21,19.4329966 19.4329966,21 17.5,21 C15.5670034,21 14,19.4329966 14,17.5 L14,15.5 C14,13.5670034 15.5670034,12 17.5,12 Z M17.6666667,14.25 L17.3333333,14.25 C16.7810486,14.25 16.3333333,14.6977153 16.3333333,15.25 L16.3333333,15.25 L16.3333333,17.75 C16.3333333,18.3022847 16.7810486,18.75 17.3333333,18.75 L17.3333333,18.75 L17.6666667,18.75 C18.2189514,18.75 18.6666667,18.3022847 18.6666667,17.75 L18.6666667,17.75 L18.6666667,15.25 C18.6666667,14.6977153 18.2189514,14.25 17.6666667,14.25 L17.6666667,14.25 Z" id="Combined-Shape" fill="#FFFFFF"></path>
                <path d="M1,27 L6,27 L6,27 L6,29 L1,29 C0.44771525,29 6.76353751e-17,28.5522847 0,28 C-6.76353751e-17,27.4477153 0.44771525,27 1,27 Z" id="Rectangle-26" fill="#FFFFFF"></path>
                <path d="M15,27 L34,27 C34.5522847,27 35,27.4477153 35,28 C35,28.5522847 34.5522847,29 34,29 L15,29 L15,29 L15,27 Z" id="Rectangle-26" fill="#FFFFFF"></path>
                <path d="M10.5,24 C12.4329966,24 14,25.5670034 14,27.5 L14,29.5 C14,31.4329966 12.4329966,33 10.5,33 C8.56700338,33 7,31.4329966 7,29.5 L7,27.5 C7,25.5670034 8.56700338,24 10.5,24 Z M10.6666667,26.25 L10.3333333,26.25 C9.78104858,26.25 9.33333333,26.6977153 9.33333333,27.25 L9.33333333,27.25 L9.33333333,29.75 C9.33333333,30.3022847 9.78104858,30.75 10.3333333,30.75 L10.3333333,30.75 L10.6666667,30.75 C11.2189514,30.75 11.6666667,30.3022847 11.6666667,29.75 L11.6666667,29.75 L11.6666667,27.25 C11.6666667,26.6977153 11.2189514,26.25 10.6666667,26.25 L10.6666667,26.25 Z" id="Combined-Shape" fill="#FFFFFF"></path>
                <rect id="Rectangle-27" fill="#A5C1FF" x="24" y="3" width="2" height="4" rx="1"></rect>
                <rect id="Rectangle-27" fill="#A5C1FF" x="17" y="15" width="2" height="4" rx="1"></rect>
                <rect id="Rectangle-27" fill="#A5C1FF" x="10" y="27" width="2" height="4" rx="1"></rect>
            </g>
        </g>
    </g>
</svg>