<?xml version="1.0" encoding="UTF-8"?>
<svg width="35px" height="35px" viewBox="0 0 35 35" version="1.1" xmlns="http://www.w3.org/2000/svg" xmlns:xlink="http://www.w3.org/1999/xlink">
    <!-- Generator: Sketch 59.1 (86144) - https://sketch.com -->
    <title>icon-vm-35</title>
    <desc>Created with Sketch.</desc>
    <g id="页面-1" stroke="none" stroke-width="1" fill="none" fill-rule="evenodd">
        <g id="官网解决方案" transform="translate(-271.000000, -3515.000000)">
            <g id="icon-vm-35" transform="translate(271.000000, 3515.000000)">
                <rect id="Rectangle-3" fill="#A5C1FF" x="4.66666667" y="4.66666667" width="30.3333333" height="16.3333333"></rect>
                <path d="M33,0 C34.1045695,-2.02906125e-16 35,0.8954305 35,2 L35,27.1666667 C35,28.2712362 34.1045695,29.1666667 33,29.1666667 L26.833,29.166 L26.8333333,32.6666667 L32.6666667,32.6666667 C33.3109989,32.6666667 33.8333333,33.1890011 33.8333333,33.8333333 C33.8333333,34.4776655 33.3109989,35 32.6666667,35 L2.33333333,35 C1.68900113,35 1.16666667,34.4776655 1.16666667,33.8333333 C1.16666667,33.1890011 1.68900113,32.6666667 2.33333333,32.6666667 L10.5,32.6666667 L10.5,29.166 L2,29.1666667 C0.8954305,29.1666667 1.3527075e-16,28.2712362 0,27.1666667 L0,2 C-1.3527075e-16,0.8954305 0.8954305,1.97926296e-15 2,0 L33,0 Z M24.5,29.166 L12.833,29.166 L12.8333333,32.6666667 L24.5,32.6666667 L24.5,29.166 Z M32.6666667,21 L2.33333333,21 L2.33333333,26.8333333 L32.6666667,26.8333333 L32.6666667,21 Z M19.8333333,23.3333333 C20.4776655,23.3333333 21,23.8556678 21,24.5 C21,25.1443322 20.4776655,25.6666667 19.8333333,25.6666667 L15.1666667,25.6666667 C14.5223345,25.6666667 14,25.1443322 14,24.5 C14,23.8556678 14.5223345,23.3333333 15.1666667,23.3333333 L19.8333333,23.3333333 Z M32.6666667,2.33333333 L2.33333333,2.33333333 L2.33333333,18.6666667 L32.6666667,18.6666667 L32.6666667,2.33333333 Z" id="形状结合" fill="#FFFFFF"></path>
            </g>
        </g>
    </g>
</svg>