<?xml version="1.0" encoding="UTF-8"?>
<svg width="35px" height="35px" viewBox="0 0 35 35" version="1.1" xmlns="http://www.w3.org/2000/svg" xmlns:xlink="http://www.w3.org/1999/xlink">
    <!-- Generator: Sketch 59.1 (86144) - https://sketch.com -->
    <title>icon-object-storage-35</title>
    <desc>Created with Sketch.</desc>
    <g id="页面-1" stroke="none" stroke-width="1" fill="none" fill-rule="evenodd">
        <g id="官网解决方案" transform="translate(-559.000000, -3515.000000)">
            <g id="icon-object-storage-35" transform="translate(559.000000, 3515.000000)">
                <path d="M33,0 C34.1045695,-2.02906125e-16 35,0.8954305 35,2 L35,19 C35,20.1045695 34.1045695,21 33,21 L20.6666667,21 C19.5620972,21 18.6666667,20.1045695 18.6666667,19 L18.6666667,2 C18.6666667,0.8954305 19.5620972,2.02906125e-16 20.6666667,0 L33,0 Z M32.6666667,2.33333333 L21,2.33333333 L21,18.6666667 L32.6666667,18.6666667 L32.6666667,2.33333333 Z" id="Combined-Shape" fill="#FFFFFF"></path>
                <rect id="Rectangle-6" fill="#A5C1FF" x="23.3333333" y="4.66666667" width="9.33333333" height="14"></rect>
                <rect id="Rectangle-6" fill="#A5C1FF" x="2.33333333" y="18.6666667" width="9.33333333" height="15.1666667"></rect>
                <path d="M14.3333333,14 C15.4379028,14 16.3333333,14.8954305 16.3333333,16 L16.3333333,33 C16.3333333,34.1045695 15.4379028,35 14.3333333,35 L2,35 C0.8954305,35 1.3527075e-16,34.1045695 0,33 L0,16 C-1.3527075e-16,14.8954305 0.8954305,14 2,14 L14.3333333,14 Z M14,16.3333333 L2.33333333,16.3333333 L2.33333333,32.6666667 L14,32.6666667 L14,16.3333333 Z" id="Combined-Shape" fill="#FFFFFF"></path>
                <path d="M33,23.3333333 C34.1045695,23.3333333 35,24.2287638 35,25.3333333 L35,33 C35,34.1045695 34.1045695,35 33,35 L20.6666667,35 C19.5620972,35 18.6666667,34.1045695 18.6666667,33 L18.6666667,25.3333333 C18.6666667,24.2287638 19.5620972,23.3333333 20.6666667,23.3333333 L33,23.3333333 Z M32.6666667,25.6666667 L21,25.6666667 L21,32.6666667 L32.6666667,32.6666667 L32.6666667,25.6666667 Z" id="Combined-Shape" fill="#FFFFFF"></path>
                <path d="M14.3333333,0 C15.4379028,5.56104062e-16 16.3333333,0.8954305 16.3333333,2 L16.3333333,9.66666667 C16.3333333,10.7712362 15.4379028,11.6666667 14.3333333,11.6666667 L2,11.6666667 C0.8954305,11.6666667 1.3527075e-16,10.7712362 0,9.66666667 L0,2 C-1.3527075e-16,0.8954305 0.8954305,2.02906125e-16 2,0 L14.3333333,0 Z M14,2.33333333 L2.33333333,2.33333333 L2.33333333,9.33333333 L14,9.33333333 L14,2.33333333 Z" id="Combined-Shape" fill="#FFFFFF"></path>
            </g>
        </g>
    </g>
</svg>