<?xml version="1.0" encoding="UTF-8"?>
<svg width="40px" height="30px" viewBox="0 0 40 30" version="1.1" xmlns="http://www.w3.org/2000/svg" xmlns:xlink="http://www.w3.org/1999/xlink">
    <!-- Generator: Sketch 59.1 (86144) - https://sketch.com -->
    <title>logo-small-white</title>
    <desc>Created with Sketch.</desc>
    <g id="页面-1" stroke="none" stroke-width="1" fill="none" fill-rule="evenodd">
        <g id="云服务器" transform="translate(-805.000000, -1891.000000)" fill="#FFFFFF" fill-rule="nonzero">
            <path d="M824.258427,1914 C824.730337,1914.06034 824.932584,1914.30172 825,1914.72414 C824.932584,1914.84483 824.865169,1915.02586 824.730337,1915.14655 L824.730337,1915.14655 L822.235955,1917.74138 L821.764045,1920.33621 C821.629213,1920.75862 821.292135,1921 820.820225,1921 C820.280899,1921 820.078652,1920.75862 820.146067,1920.33621 L820.146067,1920.33621 L820.617978,1917.74138 L819.067416,1915.14655 C819,1915.02586 819,1914.90517 819,1914.72414 C819.134831,1914.24138 819.404494,1914.06034 819.876404,1914 C820.146067,1914 820.348315,1914.12069 820.483146,1914.30172 L820.483146,1914.30172 L821.629213,1916.35345 L823.516854,1914.30172 C823.719101,1914.12069 823.988764,1914 824.258427,1914 Z M830.323353,1914 C830.854807,1914 831.054103,1914.23729 830.987671,1914.77119 L830.987671,1914.77119 L829.924762,1920.28814 C829.791898,1920.70339 829.526171,1921 828.994716,1921 C828.463261,1921 828.263966,1920.76271 828.330398,1920.28814 L828.330398,1920.28814 L828.728989,1918.15254 L826.005284,1918.15254 L825.606693,1920.28814 C825.473829,1920.70339 825.208102,1921 824.676647,1921 C824.145193,1921 823.945897,1920.76271 824.012329,1920.28814 L824.012329,1920.28814 L825.075238,1914.77119 C825.208102,1914.29661 825.473829,1914 826.005284,1914 C826.536739,1914.05932 826.736034,1914.29661 826.669602,1914.77119 L826.669602,1914.77119 L826.271011,1916.84746 L828.994716,1916.84746 L829.393307,1914.77119 C829.526171,1914.29661 829.791898,1914 830.323353,1914 Z M825,1891 C830.919003,1891 835.841121,1895.11572 837.024922,1900.68777 C841.510903,1901.51092 845,1905.43668 845,1910.24891 C845,1915.631 840.638629,1920 835.280374,1920 C834.657321,1920 834.034268,1919.93668 833.47352,1919.81004 L833.47352,1919.81004 L833.47352,1915.56769 C834.034268,1915.75764 834.657321,1915.88428 835.280374,1915.88428 C838.333333,1915.88428 840.88785,1913.35153 840.88785,1910.24891 C840.88785,1907.14629 838.395639,1904.61354 835.280374,1904.61354 C834.470405,1904.61354 833.722741,1904.74017 833.037383,1905.05677 C833.161994,1904.4869 833.224299,1903.91703 833.224299,1903.28384 C833.224299,1898.72489 829.548287,1895.0524 825,1895.0524 C820.451713,1895.0524 816.775701,1898.72489 816.775701,1903.28384 C816.775701,1903.85371 816.838006,1904.4869 816.962617,1905.05677 C816.277259,1904.80349 815.529595,1904.61354 814.719626,1904.61354 C811.666667,1904.61354 809.11215,1907.14629 809.11215,1910.24891 C809.11215,1913.35153 811.604361,1915.88428 814.719626,1915.88428 C815.404984,1915.88428 816.028037,1915.75764 816.588785,1915.56769 L816.588785,1915.56769 L816.588785,1919.81004 C815.965732,1919.93668 815.342679,1920 814.719626,1920 C809.361371,1920 805,1915.631 805,1910.24891 C805,1905.5 808.426791,1901.51092 812.975078,1900.68777 C814.158879,1895.17904 819.080997,1891 825,1891 Z" id="logo-small-white"></path>
        </g>
    </g>
</svg>