<?xml version="1.0" encoding="UTF-8"?>
<svg width="80px" height="80px" viewBox="0 0 80 80" version="1.1" xmlns="http://www.w3.org/2000/svg" xmlns:xlink="http://www.w3.org/1999/xlink">
    <!-- Generator: Sketch 59.1 (86144) - https://sketch.com -->
    <title>安全可靠</title>
    <desc>Created with Sketch.</desc>
    <g id="页面-1" stroke="none" stroke-width="1" fill="none" fill-rule="evenodd">
        <g id="官网解决方案" transform="translate(-680.000000, -1347.000000)" fill-rule="nonzero">
            <g id="安全可靠" transform="translate(680.000000, 1347.000000)">
                <path d="M72.743808,57.9793392 L68.5452437,54.1790541 C67.5455855,53.3789941 68.945107,51.778874 69.9447651,52.5789341 L74.1433294,56.3792192 C74.7431244,56.9792642 75.1429876,57.5793092 74.7431243,58.3793692 C73.0820893,61.8701692 70.9273862,65.1035718 68.3453121,67.9800897 C67.3456539,69.1801797 65.9461325,67.5800596 66.745859,66.5799846 C69.2707993,64.1106368 71.3059095,61.1856426 72.743808,57.9593377 L72.743808,57.9793392 Z M34.0170508,0.395018522 C23.5212436,1.93100089 14.0907547,7.64358646 7.86599324,16.2362071 C1.50375109,24.7522672 -1.16260712,35.4726134 0.46852281,45.9784388 C1.92987401,56.4846249 7.63104796,65.9327133 16.2431286,72.1204003 C24.6903847,78.4780296 35.345886,81.1538344 45.7930239,79.5409571 C52.9847534,78.5193333 59.7565762,75.536828 65.3663308,70.9203103 C66.7658522,69.7202202 65.3663308,68.3201151 64.3666726,69.1201752 C59.0409221,73.6628563 52.5263004,76.5849005 45.5930923,77.540807 C35.6467585,79.0714563 25.5024072,76.5458937 17.4332948,70.5300744 C9.36418234,64.5142552 4.04501549,55.5111981 2.6677708,45.5384058 C1.09976912,35.5497295 3.61442677,25.3499459 9.64538474,17.2362822 C15.6589962,9.12581221 24.6364219,3.72560543 34.6168457,2.21515512 C44.5534371,0.662200208 54.6960068,3.18627965 62.7472264,9.21568041 C70.7273087,15.1593921 76.0375901,24.0159482 77.522174,33.8575293 L71.7241567,34.6575894 C71.0462581,34.8152811 70.4658362,35.2507791 70.1247037,35.8576794 C69.8826264,36.5474033 70.0359432,37.3143067 70.5245669,37.8578295 L76.9223791,45.4784012 C77.3288877,45.9556023 77.976529,46.1513198 78.579137,45.9790743 C79.1817451,45.8068288 79.6282744,45.2983607 79.721422,44.6783412 C80.1508171,41.0792838 80.0835433,37.4382529 79.5214903,33.8575293 C78.0861291,23.3150724 72.3822462,13.8263333 63.7468846,7.61556027 C55.110672,1.52436602 44.4836815,-1.05663153 34.0170508,0.395018522 Z" id="形状" fill="#9AB9FF"></path>
                <path d="M26.8411785,42.3084999 L34.009513,53.4592424 C34.3081651,53.9238125 34.1736621,54.5425263 33.7090921,54.8411785 C33.5477948,54.9448696 33.3600861,55 33.1683345,55 L18.8316655,55 C18.2793807,55 17.8316655,54.5522847 17.8316655,54 C17.8316655,53.8082484 17.8867959,53.6205397 17.990487,53.4592424 L25.1588215,42.3084999 C25.4574737,41.8439298 26.0761875,41.7094268 26.5407576,42.008079 C26.6612602,42.085545 26.7637125,42.1879972 26.8411785,42.3084999 Z" id="三角形" fill="#9AB9FF"></path>
                <path d="M54.8411785,42.3084999 L62.009513,53.4592424 C62.3081651,53.9238125 62.1736621,54.5425263 61.7090921,54.8411785 C61.5477948,54.9448696 61.3600861,55 61.1683345,55 L46.8316655,55 C46.2793807,55 45.8316655,54.5522847 45.8316655,54 C45.8316655,53.8082484 45.8867959,53.6205397 45.990487,53.4592424 L53.1588215,42.3084999 C53.4574737,41.8439298 54.0761875,41.7094268 54.5407576,42.008079 C54.6612602,42.085545 54.7637125,42.1879972 54.8411785,42.3084999 Z" id="三角形" fill="#9AB9FF"></path>
                <path d="M40.5449884,17.996458 C40.6622516,18.0726791 40.7622225,18.17265 40.8384436,18.2899133 L52.2915151,35.9100233 C52.7223322,36.5728187 52.7223322,37.4271813 52.2915151,38.0899767 L40.8384436,55.7100867 C40.5374549,56.1731464 39.9180713,56.3045308 39.4550116,56.003542 C39.3377484,55.9273209 39.2377775,55.82735 39.1615564,55.7100867 L27.7084849,38.0899767 C27.2776678,37.4271813 27.2776678,36.5728187 27.7084849,35.9100233 L39.1615564,18.2899133 C39.4625451,17.8268536 40.0819287,17.6954692 40.5449884,17.996458 Z M45,41 L35,41 L35,43 L45,43 L45,41 Z M45,36 L35,36 L35,38 L45,38 L45,36 Z M45,31 L35,31 L35,33 L45,33 L45,31 Z" id="形状结合" fill="#4881FF"></path>
            </g>
        </g>
    </g>
</svg>