<?xml version="1.0" encoding="UTF-8"?>
<svg width="79px" height="84px" viewBox="0 0 79 84" version="1.1" xmlns="http://www.w3.org/2000/svg" xmlns:xlink="http://www.w3.org/1999/xlink">
    <!-- Generator: Sketch 59.1 (86144) - https://sketch.com -->
    <title>icon-静态内容分离加速</title>
    <desc>Created with Sketch.</desc>
    <g id="页面-1" stroke="none" stroke-width="1" fill="none" fill-rule="evenodd">
        <g id="官网解决方案" transform="translate(-144.000000, -1982.000000)">
            <g id="icon-静态内容分离加速" transform="translate(144.000000, 1982.000000)">
                <polygon id="路径" fill="#F2F6FC" fill-rule="nonzero" points="45 9 11 27.7826631 11 65.2173369 45 84 79 65.2173369 79 27.7826631"></polygon>
                <path d="M73,46 C73.5522847,46 74,46.4477153 74,47 L74,58.8231933 C74,59.5495276 73.6062162,60.2187688 72.9712859,60.5715079 L38.9712859,79.4603967 C38.3672408,79.7959773 37.6327592,79.7959773 37.0287141,79.4603967 L3.02871414,60.5715079 C2.39378377,60.2187688 2,59.5495276 2,58.8231933 L2,47.9999178 L4,47.9999178 L4,58.8231933 L38,77.7120822 L72,58.8231933 L72,47 C72,46.4477153 72.4477153,46 73,46 Z M42,23 C43.1045695,23 44,23.8954305 44,25 L44,33.9999178 L55,34 C56.1045695,34 57,34.8954305 57,36 L57,56 C57,57.1045695 56.1045695,58 55,58 L33,58 C31.8954305,58 31,57.1045695 31,56 L31,46.9999178 L29,47 L29,45 L31,44.9999178 L31,36 C31,34.8954305 31.8954305,34 33,34 L42,33.9999178 L42,25 L20,25 L20,26 L18,26 L18,25 C18,23.8954305 18.8954305,23 20,23 L42,23 Z M55,36 L44,35.9999178 L44,45 C44,46.1045695 43.1045695,47 42,47 L33,46.9999178 L33,56 L55,56 L55,36 Z M20,43 L20,45 L22,45 L22,47 L20,47 C18.8954305,47 18,46.1045695 18,45 L18,43 L20,43 Z M27,45 L27,47 L24,47 L24,45 L27,45 Z M42,35.9999178 L33,36 L33,44.9999178 L42,45 L42,35.9999178 Z M20,38 L20,41 L18,41 L18,38 L20,38 Z M20,33 L20,36 L18,36 L18,33 L20,33 Z M38.9712859,0.539603257 L72.9712859,19.4284921 C73.6062162,19.7812312 74,20.4504724 74,21.1768067 L74,31.9999178 L72,31.9999178 L72,21.1768067 L38,2.28791781 L4,21.1768067 L4,33 C4,33.5522847 3.55228475,34 3,34 C2.44771525,34 2,33.5522847 2,33 L2,21.1768067 C2,20.4504724 2.39378377,19.7812312 3.02871414,19.4284921 L37.0287141,0.539603257 C37.6327592,0.20402266 38.3672408,0.20402266 38.9712859,0.539603257 Z M20,28 L20,31 L18,31 L18,28 L20,28 Z" id="形状结合" fill="#A8B7D8" fill-rule="nonzero"></path>
                <circle id="椭圆形" fill="#4881FF" cx="19" cy="24" r="3"></circle>
                <circle id="椭圆形" fill="#4881FF" cx="56" cy="57" r="3"></circle>
                <circle id="椭圆形" fill="#4881FF" cx="3" cy="46" r="3"></circle>
                <circle id="椭圆形" fill="#4881FF" cx="73" cy="34" r="3"></circle>
            </g>
        </g>
    </g>
</svg>