<?xml version="1.0" encoding="UTF-8"?>
<svg width="96px" height="110px" viewBox="0 0 96 110" version="1.1" xmlns="http://www.w3.org/2000/svg" xmlns:xlink="http://www.w3.org/1999/xlink">
    <!-- Generator: Sketch 59.1 (86144) - https://sketch.com -->
    <title>icon-记账</title>
    <desc>Created with Sketch.</desc>
    <g id="页面-1" stroke="none" stroke-width="1" fill="none" fill-rule="evenodd">
        <g id="定价-计费模式" transform="translate(-544.000000, -1201.000000)">
            <g id="icon-记账" transform="translate(544.000000, 1201.000000)">
                <polygon id="多边形" fill="#FFD21C" opacity="0.15" points="48 0 96 27 96 83 48 110 9.0957103e-13 83 9.0957103e-13 27"></polygon>
                <rect id="矩形" fill="#FFD21C" x="29" y="34" width="40" height="44" rx="2"></rect>
                <path d="M45.7722942,48.6623473 L50.9684466,51.6623473 L42.1536318,66.9300544 L38,68.1243557 L36.9574793,63.9300544 L45.7722942,48.6623473 Z M60.5,64 C61.3284271,64 62,64.6715729 62,65.5 C62,66.3284271 61.3284271,67 60.5,67 L49.5,67 C48.6715729,67 48,66.3284271 48,65.5 C48,64.6715729 48.6715729,64 49.5,64 L60.5,64 Z M60.5,58 C61.3284271,58 62,58.6715729 62,59.5 C62,60.3284271 61.3284271,61 60.5,61 L53.5,61 C52.6715729,61 52,60.3284271 52,59.5 C52,58.6715729 52.6715729,58 53.5,58 L60.5,58 Z M60.5,52 C61.3284271,52 62,52.6715729 62,53.5 C62,54.3284271 61.3284271,55 60.5,55 L56.5,55 C55.6715729,55 55,54.3284271 55,53.5 C55,52.6715729 55.6715729,52 56.5,52 L60.5,52 Z M50.2679492,42.8756443 L53.7320508,44.8756443 C54.2103434,45.1517867 54.3742186,45.7633771 54.0980762,46.2416698 L52.5240021,48.968046 L47.3278497,45.968046 L48.9019238,43.2416698 C49.1780662,42.7633771 49.7896566,42.599502 50.2679492,42.8756443 Z" id="形状结合" fill="#FFFFFF"></path>
            </g>
        </g>
    </g>
</svg>