<?xml version="1.0" encoding="UTF-8"?>
<svg width="96px" height="110px" viewBox="0 0 96 110" version="1.1" xmlns="http://www.w3.org/2000/svg" xmlns:xlink="http://www.w3.org/1999/xlink">
    <!-- Generator: Sketch 59.1 (86144) - https://sketch.com -->
    <title>icon-开通</title>
    <desc>Created with Sketch.</desc>
    <g id="页面-1" stroke="none" stroke-width="1" fill="none" fill-rule="evenodd">
        <g id="定价-计费模式" transform="translate(-160.000000, -1303.000000)">
            <g id="icon-开通" transform="translate(160.000000, 1303.000000)">
                <polygon id="多边形" fill="#C5D405" opacity="0.15" points="48 0 96 27 96 83 48 110 9.0957103e-13 83 9.0957103e-13 27"></polygon>
                <path d="M33.0000293,66 L33.0006747,43.9632725 L33.0081962,43.7771604 C33.1234087,42.2155344 34.4263275,41 36,41 L60,41 L60,37 C60,36.4477153 59.5522847,36 59,36 L29,36 C28.4477153,36 28,36.4477153 28,37 L28,65 C28,65.5522847 28.4477153,66 29,66 L33.0000293,66 Z" id="形状结合" stroke="#C5D405" stroke-width="2" fill="#C5D405"></path>
                <rect id="矩形" fill="#C5D405" x="37" y="45" width="32" height="30" rx="2"></rect>
                <rect id="矩形" fill="#FFFFFF" x="45" y="58.5" width="16" height="3" rx="1.5"></rect>
                <rect id="矩形" fill="#FFFFFF" x="51.5" y="52" width="3" height="16" rx="1.5"></rect>
            </g>
        </g>
    </g>
</svg>