<?xml version="1.0" encoding="UTF-8"?>
<svg width="96px" height="110px" viewBox="0 0 96 110" version="1.1" xmlns="http://www.w3.org/2000/svg" xmlns:xlink="http://www.w3.org/1999/xlink">
    <!-- Generator: Sketch 59.1 (86144) - https://sketch.com -->
    <title>icon-生成订单</title>
    <desc>Created with Sketch.</desc>
    <g id="页面-1" stroke="none" stroke-width="1" fill="none" fill-rule="evenodd">
        <g id="定价-计费模式" transform="translate(-928.000000, -1463.000000)">
            <g id="icon-生成订单" transform="translate(928.000000, 1463.000000)">
                <polygon id="多边形" fill="#FFA23E" opacity="0.15" points="48 0 96 27 96 83 48 110 9.0957103e-13 83 9.0957103e-13 27"></polygon>
                <path d="M34,35 L34,40 C34,41.1045695 34.8954305,42 36,42 L36,42 L60,42 C61.1045695,42 62,41.1045695 62,40 L62,40 L62,35 L65,35 C66.1045695,35 67,35.8954305 67,37 L67,75 C67,76.1045695 66.1045695,77 65,77 L31,77 C29.8954305,77 29,76.1045695 29,75 L29,37 C29,35.8954305 29.8954305,35 31,35 L34,35 Z M58,33 C58.5522847,33 59,33.4477153 59,34 L59,38 C59,38.5522847 58.5522847,39 58,39 L38,39 C37.4477153,39 37,38.5522847 37,38 L37,34 C37,33.4477153 37.4477153,33 38,33 L58,33 Z" id="形状结合" fill="#FFA23E"></path>
                <path d="M54.5355339,50.9644661 C55.1213203,51.5502525 55.1213203,52.5 54.5355339,53.0857864 L51.6211263,55.9991263 L53,56 C53.8284271,56 54.5,56.6715729 54.5,57.5 C54.5,58.3284271 53.8284271,59 53,59 L49.4991263,58.9991263 L49.4991263,60.9991263 L53,61 C53.8284271,61 54.5,61.6715729 54.5,62.5 C54.5,63.3284271 53.8284271,64 53,64 L49.4991263,63.9991263 L49.5,67.5 C49.5,68.3284271 48.8284271,69 48,69 C47.1715729,69 46.5,68.3284271 46.5,67.5 L46.4991263,63.9991263 L43,64 C42.1715729,64 41.5,63.3284271 41.5,62.5 C41.5,61.6715729 42.1715729,61 43,61 L46.4991263,60.9991263 L46.4991263,58.9991263 L43,59 C42.1715729,59 41.5,58.3284271 41.5,57.5 C41.5,56.6715729 42.1715729,56 43,56 L44.3781263,55.9991263 L41.4644661,53.0857864 C40.8786797,52.5 40.8786797,51.5502525 41.4644661,50.9644661 C42.0502525,50.3786797 43,50.3786797 43.5857864,50.9644661 L48.0001263,55.3791263 L52.4142136,50.9644661 C53,50.3786797 53.9497475,50.3786797 54.5355339,50.9644661 Z" id="形状结合" fill="#FFFFFF"></path>
            </g>
        </g>
    </g>
</svg>